<svg width="24" height="24" viewBox="0 0 24 24" fill="none" xmlns="http://www.w3.org/2000/svg">
<path d="M2 6V13.1717V18C2 18.5523 2.44772 19 3 19H3.67762C3.95966 19 4.1883 18.7714 4.1883 18.4893C4.1883 18.2588 4.34277 18.0568 4.56529 17.9965L7.82563 17.1121C7.91097 17.089 7.99899 17.0773 8.08741 17.0773H13.9165C14.3617 17.0773 14.7226 16.7163 14.7226 16.2711C14.7226 15.8982 14.9784 15.574 15.3411 15.4871L21.2329 14.0764C21.6827 13.9687 22 13.5665 22 13.1039V11.0391C22 10.603 21.7174 10.2172 21.3016 10.0856L15.2797 8.18053C14.9481 8.07561 14.7226 7.76786 14.7226 7.42C14.7226 6.97945 14.3655 6.62232 13.925 6.62232H10.7317C10.3501 6.62232 10.0407 6.93168 10.0407 7.3133C10.0407 7.69493 9.73135 8.00429 9.34973 8.00429H8.18799C8.0342 8.00429 7.88249 7.96882 7.74464 7.90064L4.58033 6.33553C4.34024 6.21678 4.1883 5.97212 4.1883 5.70427C4.1883 5.31531 3.87298 5 3.48403 5H3C2.44772 5 2 5.44771 2 6Z" stroke="black"/>
</svg>
