<svg width="40" height="53" viewBox="0 0 40 53" fill="none" xmlns="http://www.w3.org/2000/svg">
<g clip-path="url(#clip0_3006_521)">
<path d="M7.67871 35.9844C7.67871 35.4321 8.12643 34.9844 8.67871 34.9844H31.3205C31.8728 34.9844 32.3205 35.4321 32.3205 35.9844V51.676C32.3205 52.4779 31.424 52.9536 30.76 52.5041L20.5602 45.5997C20.2216 45.3705 19.7776 45.3705 19.4391 45.5997L9.23928 52.5041C8.57522 52.9536 7.67871 52.4779 7.67871 51.676V35.9844Z" fill="#BD9EFB"/>
<path d="M7.67871 35.9844C7.67871 35.4321 8.12643 34.9844 8.67871 34.9844H31.3205C31.8728 34.9844 32.3205 35.4321 32.3205 35.9844V51.676C32.3205 52.4779 31.424 52.9536 30.76 52.5041L20.5602 45.5997C20.2216 45.3705 19.7776 45.3705 19.4391 45.5997L9.23928 52.5041C8.57522 52.9536 7.67871 52.4779 7.67871 51.676V35.9844Z" fill="black" fill-opacity="0.3"/>
<g opacity="0.33" style="mix-blend-mode:multiply">
<rect x="7.67871" y="34.9844" width="24.6418" height="10.0463" fill="black"/>
</g>
<mask id="path-3-inside-1_3006_521" fill="white">
<path d="M17.0615 0.768368C18.886 -0.256122 21.112 -0.256123 22.9365 0.768368L29.999 4.73321L36.9639 8.867C38.7633 9.93479 39.8763 11.8626 39.9014 13.9549L39.998 22.0535L39.9014 30.1522C39.8764 32.2445 38.7634 34.1732 36.9639 35.241L29.999 39.3738L22.9365 43.3397C21.1122 44.3639 18.8858 44.3639 17.0615 43.3397L9.99902 39.3738L3.03418 35.241C1.2347 34.1732 0.121681 32.2445 0.0966797 30.1522L0 22.0535L0.0966797 13.9549C0.121708 11.8626 1.23472 9.93479 3.03418 8.867L9.99902 4.73321L17.0615 0.768368Z"/>
</mask>
<path d="M17.0615 0.768368C18.886 -0.256122 21.112 -0.256123 22.9365 0.768368L29.999 4.73321L36.9639 8.867C38.7633 9.93479 39.8763 11.8626 39.9014 13.9549L39.998 22.0535L39.9014 30.1522C39.8764 32.2445 38.7634 34.1732 36.9639 35.241L29.999 39.3738L22.9365 43.3397C21.1122 44.3639 18.8858 44.3639 17.0615 43.3397L9.99902 39.3738L3.03418 35.241C1.2347 34.1732 0.121681 32.2445 0.0966797 30.1522L0 22.0535L0.0966797 13.9549C0.121708 11.8626 1.23472 9.93479 3.03418 8.867L9.99902 4.73321L17.0615 0.768368Z" fill="#BD9EFB"/>
<path d="M17.0615 0.768368C18.886 -0.256122 21.112 -0.256123 22.9365 0.768368L29.999 4.73321L36.9639 8.867C38.7633 9.93479 39.8763 11.8626 39.9014 13.9549L39.998 22.0535L39.9014 30.1522C39.8764 32.2445 38.7634 34.1732 36.9639 35.241L29.999 39.3738L22.9365 43.3397C21.1122 44.3639 18.8858 44.3639 17.0615 43.3397L9.99902 39.3738L3.03418 35.241C1.2347 34.1732 0.121681 32.2445 0.0966797 30.1522L0 22.0535L0.0966797 13.9549C0.121708 11.8626 1.23472 9.93479 3.03418 8.867L9.99902 4.73321L17.0615 0.768368Z" fill="url(#paint0_radial_3006_521)" fill-opacity="0.77" style="mix-blend-mode:screen"/>
<path d="M17.0615 0.768368L19.0196 4.25632L19.02 4.25612L17.0615 0.768368ZM22.9365 0.768368L20.9781 4.25612L20.9784 4.25632L22.9365 0.768368ZM29.999 4.73321L32.0406 1.29345L31.9992 1.26885L31.9571 1.24526L29.999 4.73321ZM36.9639 8.867L34.9223 12.3068L34.9226 12.307L36.9639 8.867ZM39.9014 13.9549L43.9011 13.9071V13.907L39.9014 13.9549ZM39.998 22.0535L43.9978 22.1013L43.9983 22.0535L43.9978 22.0058L39.998 22.0535ZM39.9014 30.1522L43.9011 30.2V30.1999L39.9014 30.1522ZM36.9639 35.241L39.0051 38.681L39.0051 38.681L36.9639 35.241ZM29.999 39.3738L31.9575 42.8616L31.9992 42.8382L32.0402 42.8138L29.999 39.3738ZM22.9365 43.3397L24.8948 46.8275L24.895 46.8274L22.9365 43.3397ZM17.0615 43.3397L15.103 46.8274L15.1033 46.8275L17.0615 43.3397ZM9.99902 39.3738L7.9578 42.8138L7.99889 42.8382L8.04054 42.8616L9.99902 39.3738ZM3.03418 35.241L0.992933 38.681L0.992961 38.681L3.03418 35.241ZM0.0966797 30.1522L-3.90304 30.1999L-3.90303 30.2L0.0966797 30.1522ZM0 22.0535L-3.99972 22.0058L-4.00029 22.0535L-3.99972 22.1013L0 22.0535ZM0.0966797 13.9549L-3.90303 13.907L-3.90304 13.9071L0.0966797 13.9549ZM3.03418 8.867L5.07543 12.307L5.07576 12.3068L3.03418 8.867ZM9.99902 4.73321L8.04091 1.24526L7.99889 1.26885L7.95745 1.29345L9.99902 4.73321ZM17.0615 0.768368L19.02 4.25612C19.6281 3.91463 20.3699 3.91463 20.9781 4.25612L22.9365 0.768368L24.895 -2.71939C21.8542 -4.42687 18.1439 -4.42687 15.1031 -2.71939L17.0615 0.768368ZM22.9365 0.768368L20.9784 4.25632L28.0409 8.22116L29.999 4.73321L31.9571 1.24526L24.8946 -2.71958L22.9365 0.768368ZM29.999 4.73321L27.9574 8.17297L34.9223 12.3068L36.9639 8.867L39.0054 5.42724L32.0406 1.29345L29.999 4.73321ZM36.9639 8.867L34.9226 12.307C35.5224 12.6629 35.8933 13.3053 35.9017 14.0027L39.9014 13.9549L43.9011 13.907C43.8594 10.42 42.0043 7.20672 39.0051 5.42704L36.9639 8.867ZM39.9014 13.9549L35.9017 14.0026L35.9983 22.1013L39.998 22.0535L43.9978 22.0058L43.9011 13.9071L39.9014 13.9549ZM39.998 22.0535L35.9983 22.0058L35.9017 30.1044L39.9014 30.1522L43.9011 30.1999L43.9978 22.1013L39.998 22.0535ZM39.9014 30.1522L35.9017 30.1044C35.8933 30.8025 35.5218 31.4455 34.9226 31.8011L36.9639 35.241L39.0051 38.681C42.0049 36.9009 43.8594 33.6864 43.9011 30.2L39.9014 30.1522ZM36.9639 35.241L34.9226 31.8011L27.9578 35.9339L29.999 39.3738L32.0402 42.8138L39.0051 38.681L36.9639 35.241ZM29.999 39.3738L28.0405 35.8861L20.978 39.8519L22.9365 43.3397L24.895 46.8274L31.9575 42.8616L29.999 39.3738ZM22.9365 43.3397L20.9783 39.8518C20.3702 40.1932 19.6279 40.1932 19.0198 39.8518L17.0615 43.3397L15.1033 46.8275C18.1438 48.5346 21.8542 48.5346 24.8948 46.8275L22.9365 43.3397ZM17.0615 43.3397L19.02 39.8519L11.9575 35.8861L9.99902 39.3738L8.04054 42.8616L15.103 46.8274L17.0615 43.3397ZM9.99902 39.3738L12.0402 35.9339L5.0754 31.8011L3.03418 35.241L0.992961 38.681L7.9578 42.8138L9.99902 39.3738ZM3.03418 35.241L5.07543 31.8011C4.47623 31.4455 4.10474 30.8025 4.09639 30.1044L0.0966797 30.1522L-3.90303 30.2C-3.86137 33.6864 -2.00684 36.9009 0.992933 38.681L3.03418 35.241ZM0.0966797 30.1522L4.09639 30.1044L3.99972 22.0058L0 22.0535L-3.99972 22.1013L-3.90304 30.1999L0.0966797 30.1522ZM0 22.0535L3.99972 22.1013L4.09639 14.0026L0.0966797 13.9549L-3.90304 13.9071L-3.99972 22.0058L0 22.0535ZM0.0966797 13.9549L4.09639 14.0027C4.10474 13.3053 4.47565 12.6629 5.07543 12.307L3.03418 8.867L0.992932 5.42704C-2.00621 7.20672 -3.86132 10.42 -3.90303 13.907L0.0966797 13.9549ZM3.03418 8.867L5.07576 12.3068L12.0406 8.17297L9.99902 4.73321L7.95745 1.29345L0.992604 5.42724L3.03418 8.867ZM9.99902 4.73321L11.9571 8.22116L19.0196 4.25632L17.0615 0.768368L15.1034 -2.71958L8.04091 1.24526L9.99902 4.73321Z" fill="black" fill-opacity="0.11" style="mix-blend-mode:overlay" mask="url(#path-3-inside-1_3006_521)"/>
<g filter="url(#filter0_d_3006_521)">
<path d="M30.4942 27.8547C30.4967 28.4281 30.4953 29.0031 30.4952 29.5764C30.498 30.0798 30.5585 30.5427 30.1788 30.9338C29.8987 31.2219 29.5909 31.2883 29.2041 31.2883H11.6866L10.3448 31.2892C9.80157 31.2895 9.28392 31.3686 8.86625 30.9533C8.71642 30.8043 8.61144 30.6159 8.56254 30.4103C8.48371 30.0663 8.54929 29.508 8.53129 29.1408C8.52555 29.0239 8.52196 28.9056 8.5186 28.7883H8.50883V27.2756H16.1006C16.8644 28.3189 18.0982 28.9963 19.4903 28.9963C19.5293 28.9963 19.5686 28.9944 19.6075 28.9933C19.7919 28.9906 19.9776 28.9769 20.1622 28.9494C20.3931 28.9147 20.6197 28.8596 20.8389 28.7883H20.7969C21.6402 28.5121 22.3666 27.9768 22.8799 27.2756H23.1973C23.423 27.2732 23.6597 27.2746 23.875 27.2746H30.4649C30.4657 27.4678 30.4933 27.6613 30.4942 27.8547ZM19.4893 22.217C20.9149 22.2172 22.0704 23.3734 22.0704 24.799C22.0701 26.2244 20.9147 27.3799 19.4893 27.3801C18.0637 27.3801 16.9075 26.2246 16.9073 24.799C16.9073 23.3733 18.0636 22.217 19.4893 22.217ZM19.627 12.006C19.8533 12.0278 20.0669 12.1254 20.2315 12.2824C20.3797 12.4264 20.5439 12.6935 20.6641 12.8742L21.1758 13.6447L23.3526 16.9084L24.0176 17.9074C24.1319 18.0793 24.3019 18.3506 24.4288 18.5002C24.7123 18.8321 25.1632 18.9686 25.583 18.8488C25.9158 18.7533 26.5151 18.2511 26.8262 18.0178L29.5674 15.9631L30.3164 15.3986C30.4753 15.2782 30.6186 15.1642 30.794 15.0549C31.3051 14.7372 32.0275 15.1379 32.0215 15.7375C32.0181 16.0345 31.9401 16.4136 31.8926 16.7199L31.6387 18.3664L30.8819 23.2814L30.6329 24.8986C30.5904 25.1754 30.5305 25.5149 30.501 25.7883C29.9164 25.804 29.2884 25.7943 28.6993 25.7941L25.5127 25.7932H24.2862C24.0892 25.7932 23.8121 25.7857 23.6211 25.798C23.6864 25.4881 23.7184 25.2692 23.7286 24.9523C23.7751 23.8227 23.3613 22.7218 22.5811 21.9035C21.9594 21.2454 21.1981 20.8515 20.3506 20.6887C20.073 20.6308 19.785 20.5998 19.4903 20.5998C17.1719 20.5998 15.2925 22.4798 15.292 24.798C15.292 25.1407 15.3337 25.4743 15.4112 25.7932C15.2003 25.7855 14.9136 25.793 14.709 25.7932L13.1973 25.7941L8.52543 25.7932C8.51123 25.5914 8.43372 25.1785 8.40043 24.9621L8.14262 23.2824L7.32914 17.9992L7.12114 16.6535C7.07797 16.3749 7.03302 16.1089 7.00688 15.8273C6.92895 15.2999 7.52863 14.8077 8.02641 14.9738C8.3583 15.0848 8.85433 15.5131 9.14653 15.7326L11.8926 17.7902L12.6924 18.3928C12.8647 18.5224 13.0514 18.6751 13.2403 18.7756C13.6439 18.9902 14.1868 18.9061 14.5137 18.59C14.6846 18.4244 14.8361 18.1698 14.9698 17.968L15.4434 17.2551L17.7383 13.8117L18.3399 12.9064C18.6628 12.4186 18.8356 12.0459 19.4786 12.0002C19.5166 11.9992 19.5895 12.0026 19.627 12.006Z" fill="#584A76"/>
</g>
</g>
<defs>
<filter id="filter0_d_3006_521" x="3" y="8" width="33.0215" height="27.2954" filterUnits="userSpaceOnUse" color-interpolation-filters="sRGB">
<feFlood flood-opacity="0" result="BackgroundImageFix"/>
<feColorMatrix in="SourceAlpha" type="matrix" values="0 0 0 0 0 0 0 0 0 0 0 0 0 0 0 0 0 0 127 0" result="hardAlpha"/>
<feOffset/>
<feGaussianBlur stdDeviation="2"/>
<feComposite in2="hardAlpha" operator="out"/>
<feColorMatrix type="matrix" values="0 0 0 0 1 0 0 0 0 1 0 0 0 0 1 0 0 0 0.65 0"/>
<feBlend mode="normal" in2="BackgroundImageFix" result="effect1_dropShadow_3006_521"/>
<feBlend mode="normal" in="SourceGraphic" in2="effect1_dropShadow_3006_521" result="shape"/>
</filter>
<radialGradient id="paint0_radial_3006_521" cx="0" cy="0" r="1" gradientTransform="matrix(10.232 17.8204 -16.1599 9.38158 13.9157 12.5791)" gradientUnits="userSpaceOnUse">
<stop offset="0.0192308" stop-color="white"/>
<stop offset="1" stop-color="white" stop-opacity="0"/>
</radialGradient>
<clipPath id="clip0_3006_521">
<rect width="40" height="53" fill="white"/>
</clipPath>
</defs>
</svg>
