<svg width="40" height="53" viewBox="0 0 40 53" fill="none" xmlns="http://www.w3.org/2000/svg">
<g clip-path="url(#clip0_3006_507)">
<path d="M7.67871 35.9844C7.67871 35.4321 8.12643 34.9844 8.67871 34.9844H31.3205C31.8728 34.9844 32.3205 35.4321 32.3205 35.9844V51.676C32.3205 52.4779 31.424 52.9536 30.76 52.5041L20.5602 45.5997C20.2216 45.3705 19.7776 45.3705 19.4391 45.5997L9.23928 52.5041C8.57522 52.9536 7.67871 52.4779 7.67871 51.676V35.9844Z" fill="#6FB7F5"/>
<path d="M7.67871 35.9844C7.67871 35.4321 8.12643 34.9844 8.67871 34.9844H31.3205C31.8728 34.9844 32.3205 35.4321 32.3205 35.9844V51.676C32.3205 52.4779 31.424 52.9536 30.76 52.5041L20.5602 45.5997C20.2216 45.3705 19.7776 45.3705 19.4391 45.5997L9.23928 52.5041C8.57522 52.9536 7.67871 52.4779 7.67871 51.676V35.9844Z" fill="black" fill-opacity="0.3"/>
<g opacity="0.33" style="mix-blend-mode:multiply">
<rect x="7.67871" y="34.9844" width="24.6418" height="10.0463" fill="black"/>
</g>
<mask id="path-3-inside-1_3006_507" fill="white">
<path d="M17.0615 0.768368C18.886 -0.256122 21.112 -0.256123 22.9365 0.768368L29.999 4.73321L36.9639 8.867C38.7633 9.93479 39.8763 11.8626 39.9014 13.9549L39.998 22.0535L39.9014 30.1522C39.8764 32.2445 38.7634 34.1732 36.9639 35.241L29.999 39.3738L22.9365 43.3397C21.1122 44.3639 18.8858 44.3639 17.0615 43.3397L9.99902 39.3738L3.03418 35.241C1.2347 34.1732 0.121681 32.2445 0.0966797 30.1522L0 22.0535L0.0966797 13.9549C0.121708 11.8626 1.23472 9.93479 3.03418 8.867L9.99902 4.73321L17.0615 0.768368Z"/>
</mask>
<path d="M17.0615 0.768368C18.886 -0.256122 21.112 -0.256123 22.9365 0.768368L29.999 4.73321L36.9639 8.867C38.7633 9.93479 39.8763 11.8626 39.9014 13.9549L39.998 22.0535L39.9014 30.1522C39.8764 32.2445 38.7634 34.1732 36.9639 35.241L29.999 39.3738L22.9365 43.3397C21.1122 44.3639 18.8858 44.3639 17.0615 43.3397L9.99902 39.3738L3.03418 35.241C1.2347 34.1732 0.121681 32.2445 0.0966797 30.1522L0 22.0535L0.0966797 13.9549C0.121708 11.8626 1.23472 9.93479 3.03418 8.867L9.99902 4.73321L17.0615 0.768368Z" fill="#6FB7F5"/>
<path d="M17.0615 0.768368C18.886 -0.256122 21.112 -0.256123 22.9365 0.768368L29.999 4.73321L36.9639 8.867C38.7633 9.93479 39.8763 11.8626 39.9014 13.9549L39.998 22.0535L39.9014 30.1522C39.8764 32.2445 38.7634 34.1732 36.9639 35.241L29.999 39.3738L22.9365 43.3397C21.1122 44.3639 18.8858 44.3639 17.0615 43.3397L9.99902 39.3738L3.03418 35.241C1.2347 34.1732 0.121681 32.2445 0.0966797 30.1522L0 22.0535L0.0966797 13.9549C0.121708 11.8626 1.23472 9.93479 3.03418 8.867L9.99902 4.73321L17.0615 0.768368Z" fill="url(#paint0_radial_3006_507)" fill-opacity="0.77" style="mix-blend-mode:screen"/>
<path d="M17.0615 0.768368L19.0196 4.25632L19.02 4.25612L17.0615 0.768368ZM22.9365 0.768368L20.9781 4.25612L20.9784 4.25632L22.9365 0.768368ZM29.999 4.73321L32.0406 1.29345L31.9992 1.26885L31.9571 1.24526L29.999 4.73321ZM36.9639 8.867L34.9223 12.3068L34.9226 12.307L36.9639 8.867ZM39.9014 13.9549L43.9011 13.9071V13.907L39.9014 13.9549ZM39.998 22.0535L43.9978 22.1013L43.9983 22.0535L43.9978 22.0058L39.998 22.0535ZM39.9014 30.1522L43.9011 30.2V30.1999L39.9014 30.1522ZM36.9639 35.241L39.0051 38.681L39.0051 38.681L36.9639 35.241ZM29.999 39.3738L31.9575 42.8616L31.9992 42.8382L32.0402 42.8138L29.999 39.3738ZM22.9365 43.3397L24.8948 46.8275L24.895 46.8274L22.9365 43.3397ZM17.0615 43.3397L15.103 46.8274L15.1033 46.8275L17.0615 43.3397ZM9.99902 39.3738L7.9578 42.8138L7.99889 42.8382L8.04054 42.8616L9.99902 39.3738ZM3.03418 35.241L0.992933 38.681L0.992961 38.681L3.03418 35.241ZM0.0966797 30.1522L-3.90304 30.1999L-3.90303 30.2L0.0966797 30.1522ZM0 22.0535L-3.99972 22.0058L-4.00029 22.0535L-3.99972 22.1013L0 22.0535ZM0.0966797 13.9549L-3.90303 13.907L-3.90304 13.9071L0.0966797 13.9549ZM3.03418 8.867L5.07543 12.307L5.07576 12.3068L3.03418 8.867ZM9.99902 4.73321L8.04091 1.24526L7.99889 1.26885L7.95745 1.29345L9.99902 4.73321ZM17.0615 0.768368L19.02 4.25612C19.6281 3.91463 20.3699 3.91463 20.9781 4.25612L22.9365 0.768368L24.895 -2.71939C21.8542 -4.42687 18.1439 -4.42687 15.1031 -2.71939L17.0615 0.768368ZM22.9365 0.768368L20.9784 4.25632L28.0409 8.22116L29.999 4.73321L31.9571 1.24526L24.8946 -2.71958L22.9365 0.768368ZM29.999 4.73321L27.9574 8.17297L34.9223 12.3068L36.9639 8.867L39.0054 5.42724L32.0406 1.29345L29.999 4.73321ZM36.9639 8.867L34.9226 12.307C35.5224 12.6629 35.8933 13.3053 35.9017 14.0027L39.9014 13.9549L43.9011 13.907C43.8594 10.42 42.0043 7.20672 39.0051 5.42704L36.9639 8.867ZM39.9014 13.9549L35.9017 14.0026L35.9983 22.1013L39.998 22.0535L43.9978 22.0058L43.9011 13.9071L39.9014 13.9549ZM39.998 22.0535L35.9983 22.0058L35.9017 30.1044L39.9014 30.1522L43.9011 30.1999L43.9978 22.1013L39.998 22.0535ZM39.9014 30.1522L35.9017 30.1044C35.8933 30.8025 35.5218 31.4455 34.9226 31.8011L36.9639 35.241L39.0051 38.681C42.0049 36.9009 43.8594 33.6864 43.9011 30.2L39.9014 30.1522ZM36.9639 35.241L34.9226 31.8011L27.9578 35.9339L29.999 39.3738L32.0402 42.8138L39.0051 38.681L36.9639 35.241ZM29.999 39.3738L28.0405 35.8861L20.978 39.8519L22.9365 43.3397L24.895 46.8274L31.9575 42.8616L29.999 39.3738ZM22.9365 43.3397L20.9783 39.8518C20.3702 40.1932 19.6279 40.1932 19.0198 39.8518L17.0615 43.3397L15.1033 46.8275C18.1438 48.5346 21.8542 48.5346 24.8948 46.8275L22.9365 43.3397ZM17.0615 43.3397L19.02 39.8519L11.9575 35.8861L9.99902 39.3738L8.04054 42.8616L15.103 46.8274L17.0615 43.3397ZM9.99902 39.3738L12.0402 35.9339L5.0754 31.8011L3.03418 35.241L0.992961 38.681L7.9578 42.8138L9.99902 39.3738ZM3.03418 35.241L5.07543 31.8011C4.47623 31.4455 4.10474 30.8025 4.09639 30.1044L0.0966797 30.1522L-3.90303 30.2C-3.86137 33.6864 -2.00684 36.9009 0.992933 38.681L3.03418 35.241ZM0.0966797 30.1522L4.09639 30.1044L3.99972 22.0058L0 22.0535L-3.99972 22.1013L-3.90304 30.1999L0.0966797 30.1522ZM0 22.0535L3.99972 22.1013L4.09639 14.0026L0.0966797 13.9549L-3.90304 13.9071L-3.99972 22.0058L0 22.0535ZM0.0966797 13.9549L4.09639 14.0027C4.10474 13.3053 4.47565 12.6629 5.07543 12.307L3.03418 8.867L0.992932 5.42704C-2.00621 7.20672 -3.86132 10.42 -3.90303 13.907L0.0966797 13.9549ZM3.03418 8.867L5.07576 12.3068L12.0406 8.17297L9.99902 4.73321L7.95745 1.29345L0.992604 5.42724L3.03418 8.867ZM9.99902 4.73321L11.9571 8.22116L19.0196 4.25632L17.0615 0.768368L15.1034 -2.71958L8.04091 1.24526L9.99902 4.73321Z" fill="black" fill-opacity="0.11" style="mix-blend-mode:overlay" mask="url(#path-3-inside-1_3006_507)"/>
<g filter="url(#filter0_d_3006_507)">
<path d="M14.0308 11.0908C14.0886 11.09 14.2666 11.0157 14.3366 10.9955C14.6466 10.9062 14.9257 10.8711 15.247 10.8927C15.5085 10.9104 15.7382 10.9862 15.9923 11.0273C16.2396 11.0658 16.4925 11.0687 16.7406 11.0362C16.8733 11.0181 17.0052 10.9897 17.1337 10.9514C17.487 10.8429 17.8142 10.6601 18.0921 10.4161C18.2912 10.2424 18.4091 10.1162 18.6341 9.97011C19.592 9.34877 20.8731 9.4436 21.7204 10.2123C21.8525 10.3322 22.0013 10.4706 22.1438 10.5745C22.6234 10.9222 23.21 11.0922 23.801 11.0543C24.1204 11.0333 24.3309 10.9518 24.6242 10.9117C25.3532 10.812 26.0906 11.0311 26.6462 11.5136C26.945 11.773 27.1797 12.099 27.3307 12.4648C27.4017 12.6371 27.449 12.8162 27.511 12.9899C27.6123 13.2738 27.7929 13.5819 27.9915 13.8086C28.2862 14.1463 28.6659 14.4004 29.0909 14.5428C29.3959 14.6473 29.6486 14.7093 29.9323 14.8869C30.1417 15.018 30.3035 15.1537 30.4712 15.3359C30.5093 15.3774 30.649 15.5407 30.6796 15.564L30.9383 16.0122C30.9586 16.1046 31.0032 16.2096 31.0323 16.3019C31.1574 16.6981 31.1866 17.1179 31.1102 17.5267C31.0816 17.6788 31.0417 17.8315 31.0147 17.9843C30.9641 18.2869 30.9685 18.5964 31.0297 18.897C31.1189 19.3377 31.3225 19.7478 31.6191 20.0858C31.7766 20.2675 31.9101 20.3962 32.0463 20.5992C32.599 21.4262 32.6221 22.4996 32.105 23.3494C31.9272 23.6398 31.7853 23.7557 31.5817 23.9977C31.4077 24.2032 31.2666 24.4351 31.1653 24.6846C31.011 25.0664 30.9526 25.4801 30.994 25.8898C31.0182 26.1304 31.0826 26.3403 31.1198 26.5726C31.2155 27.175 31.0913 27.7921 30.7718 28.3117C30.4826 28.7801 30.0497 29.1437 29.538 29.3465C29.3764 29.4096 29.202 29.4552 29.0392 29.5138C28.7588 29.6148 28.4701 29.7867 28.2443 29.9807C27.9077 30.2694 27.6529 30.642 27.5067 31.0606C27.3269 31.5771 27.2199 31.9727 26.8083 32.3704C26.7687 32.4087 26.5006 32.654 26.4895 32.6717L26.0116 32.9476C25.9746 32.951 25.8972 32.9789 25.8603 32.9921C25.4363 33.1444 24.9931 33.1947 24.5477 33.1151C24.3995 33.0886 24.2428 33.05 24.0901 33.0218C23.6655 32.9447 23.2271 32.9772 22.8187 33.1165C22.2197 33.3184 22.0569 33.5604 21.6214 33.9138C21.149 34.2945 20.5548 34.4944 19.9484 34.4771C19.3898 34.4637 18.8507 34.2645 18.4169 33.9123C18.2424 33.7706 18.095 33.6136 17.9095 33.4768C17.6019 33.2505 17.2464 33.0954 16.8712 33.0242C16.5858 32.971 16.2927 32.967 16.0059 33.0118C15.6132 33.0741 15.4324 33.1612 14.9944 33.1504C14.0349 33.123 13.1715 32.5597 12.76 31.6924C12.6581 31.4773 12.6142 31.2925 12.5368 31.0714C12.391 30.6538 12.1384 30.2816 11.8055 29.9904C11.5807 29.7938 11.3225 29.6375 11.0438 29.5304C10.6347 29.375 10.4382 29.3731 10.037 29.1069C9.85371 28.9852 9.68705 28.8395 9.54075 28.6751C9.47588 28.6029 9.42028 28.528 9.35312 28.4575L9.34424 28.448L9.10596 28.0353C9.09888 27.9834 9.07609 27.9305 9.05694 27.882C8.88963 27.4582 8.84712 26.9784 8.92592 26.5301C8.94762 26.4068 8.98063 26.2787 9.00613 26.1534C9.09107 25.7442 9.07323 25.3199 8.95436 24.9192C8.85244 24.5772 8.68065 24.2593 8.44995 23.9869C8.33562 23.8538 8.20521 23.7241 8.09773 23.5859C7.80733 23.2125 7.62767 22.7653 7.57791 22.2949C7.50526 21.6438 7.6868 20.9895 8.08616 20.4701C8.2151 20.3017 8.3748 20.1491 8.50794 19.9819C8.93483 19.4439 9.12641 18.7547 9.03786 18.0736C9.00643 17.8309 8.93103 17.594 8.90381 17.3492C8.78585 16.2896 9.33952 15.2682 10.2914 14.7879C10.5307 14.6677 10.7139 14.6234 10.9608 14.539C11.3512 14.4034 11.7045 14.1752 11.9875 13.874C12.2209 13.6281 12.4015 13.3365 12.5185 13.0183C12.6296 12.7086 12.6822 12.4478 12.8617 12.1537C12.9862 11.9392 13.1435 11.7488 13.321 11.5762C13.3889 11.5104 13.4961 11.4418 13.5505 11.3682L14.0308 11.0908ZM13.7043 27.8026C15.2269 29.463 17.3427 30.4576 19.5927 30.57C21.8635 30.6857 24.0875 29.8919 25.772 28.3646C26.9479 27.2967 27.8043 25.9223 28.2437 24.3958C28.6965 22.8029 28.7085 21.022 28.1867 19.4435L13.7043 27.8026ZM26.8298 22.2476C26.7517 24.5192 25.5399 26.701 23.4265 27.9213C21.3131 29.1413 18.8184 29.0994 16.8122 28.0313L26.8298 22.2476ZM15.6338 14.668C15.3068 14.8691 15.0611 15.0282 14.7557 15.2663C13.2225 16.4613 12.1412 18.1432 11.6923 20.0345C11.3215 21.5945 11.3973 23.021 11.8347 24.5507C12.7009 24.0643 13.5736 23.5502 14.4351 23.0528L23.8531 17.6153C24.6595 17.1497 25.5079 16.6755 26.3021 16.1969C24.668 14.4908 22.5663 13.5114 20.1911 13.4599C18.5886 13.4235 17.0079 13.8426 15.6338 14.668ZM16.6126 16.1191C18.7083 14.9092 21.1792 14.9407 23.1768 15.9828L13.2132 21.7353C13.3096 19.4844 14.5171 17.3291 16.6126 16.1191Z" fill="#345673"/>
</g>
</g>
<defs>
<filter id="filter0_d_3006_507" x="3.5625" y="5.5625" width="32.915" height="32.9155" filterUnits="userSpaceOnUse" color-interpolation-filters="sRGB">
<feFlood flood-opacity="0" result="BackgroundImageFix"/>
<feColorMatrix in="SourceAlpha" type="matrix" values="0 0 0 0 0 0 0 0 0 0 0 0 0 0 0 0 0 0 127 0" result="hardAlpha"/>
<feOffset/>
<feGaussianBlur stdDeviation="2"/>
<feComposite in2="hardAlpha" operator="out"/>
<feColorMatrix type="matrix" values="0 0 0 0 1 0 0 0 0 1 0 0 0 0 1 0 0 0 0.65 0"/>
<feBlend mode="normal" in2="BackgroundImageFix" result="effect1_dropShadow_3006_507"/>
<feBlend mode="normal" in="SourceGraphic" in2="effect1_dropShadow_3006_507" result="shape"/>
</filter>
<radialGradient id="paint0_radial_3006_507" cx="0" cy="0" r="1" gradientTransform="matrix(10.232 17.8204 -16.1599 9.38158 13.9157 12.5791)" gradientUnits="userSpaceOnUse">
<stop offset="0.0192308" stop-color="white"/>
<stop offset="1" stop-color="white" stop-opacity="0"/>
</radialGradient>
<clipPath id="clip0_3006_507">
<rect width="40" height="53" fill="white"/>
</clipPath>
</defs>
</svg>
