<svg width="40" height="53" viewBox="0 0 40 53" fill="none" xmlns="http://www.w3.org/2000/svg">
<g clip-path="url(#clip0_3006_535)">
<path d="M7.67871 35.9844C7.67871 35.4321 8.12643 34.9844 8.67871 34.9844H31.3205C31.8728 34.9844 32.3205 35.4321 32.3205 35.9844V51.676C32.3205 52.4779 31.424 52.9536 30.76 52.5041L20.5602 45.5997C20.2216 45.3705 19.7776 45.3705 19.4391 45.5997L9.23928 52.5041C8.57522 52.9536 7.67871 52.4779 7.67871 51.676V35.9844Z" fill="#FF8593"/>
<path d="M7.67871 35.9844C7.67871 35.4321 8.12643 34.9844 8.67871 34.9844H31.3205C31.8728 34.9844 32.3205 35.4321 32.3205 35.9844V51.676C32.3205 52.4779 31.424 52.9536 30.76 52.5041L20.5602 45.5997C20.2216 45.3705 19.7776 45.3705 19.4391 45.5997L9.23928 52.5041C8.57522 52.9536 7.67871 52.4779 7.67871 51.676V35.9844Z" fill="black" fill-opacity="0.3"/>
<g opacity="0.33" style="mix-blend-mode:multiply">
<rect x="7.67871" y="34.9844" width="24.6418" height="10.0463" fill="black"/>
</g>
<mask id="path-3-inside-1_3006_535" fill="white">
<path d="M17.0615 0.768368C18.886 -0.256122 21.112 -0.256123 22.9365 0.768368L29.999 4.73321L36.9639 8.867C38.7633 9.93479 39.8763 11.8626 39.9014 13.9549L39.998 22.0535L39.9014 30.1522C39.8764 32.2445 38.7634 34.1732 36.9639 35.241L29.999 39.3738L22.9365 43.3397C21.1122 44.3639 18.8858 44.3639 17.0615 43.3397L9.99902 39.3738L3.03418 35.241C1.2347 34.1732 0.121681 32.2445 0.0966797 30.1522L0 22.0535L0.0966797 13.9549C0.121708 11.8626 1.23472 9.93479 3.03418 8.867L9.99902 4.73321L17.0615 0.768368Z"/>
</mask>
<path d="M17.0615 0.768368C18.886 -0.256122 21.112 -0.256123 22.9365 0.768368L29.999 4.73321L36.9639 8.867C38.7633 9.93479 39.8763 11.8626 39.9014 13.9549L39.998 22.0535L39.9014 30.1522C39.8764 32.2445 38.7634 34.1732 36.9639 35.241L29.999 39.3738L22.9365 43.3397C21.1122 44.3639 18.8858 44.3639 17.0615 43.3397L9.99902 39.3738L3.03418 35.241C1.2347 34.1732 0.121681 32.2445 0.0966797 30.1522L0 22.0535L0.0966797 13.9549C0.121708 11.8626 1.23472 9.93479 3.03418 8.867L9.99902 4.73321L17.0615 0.768368Z" fill="#FF8593"/>
<path d="M17.0615 0.768368C18.886 -0.256122 21.112 -0.256123 22.9365 0.768368L29.999 4.73321L36.9639 8.867C38.7633 9.93479 39.8763 11.8626 39.9014 13.9549L39.998 22.0535L39.9014 30.1522C39.8764 32.2445 38.7634 34.1732 36.9639 35.241L29.999 39.3738L22.9365 43.3397C21.1122 44.3639 18.8858 44.3639 17.0615 43.3397L9.99902 39.3738L3.03418 35.241C1.2347 34.1732 0.121681 32.2445 0.0966797 30.1522L0 22.0535L0.0966797 13.9549C0.121708 11.8626 1.23472 9.93479 3.03418 8.867L9.99902 4.73321L17.0615 0.768368Z" fill="url(#paint0_radial_3006_535)" fill-opacity="0.77" style="mix-blend-mode:screen"/>
<path d="M17.0615 0.768368L19.0196 4.25632L19.02 4.25612L17.0615 0.768368ZM22.9365 0.768368L20.9781 4.25612L20.9784 4.25632L22.9365 0.768368ZM29.999 4.73321L32.0406 1.29345L31.9992 1.26885L31.9571 1.24526L29.999 4.73321ZM36.9639 8.867L34.9223 12.3068L34.9226 12.307L36.9639 8.867ZM39.9014 13.9549L43.9011 13.9071V13.907L39.9014 13.9549ZM39.998 22.0535L43.9978 22.1013L43.9983 22.0535L43.9978 22.0058L39.998 22.0535ZM39.9014 30.1522L43.9011 30.2V30.1999L39.9014 30.1522ZM36.9639 35.241L39.0051 38.681L39.0051 38.681L36.9639 35.241ZM29.999 39.3738L31.9575 42.8616L31.9992 42.8382L32.0402 42.8138L29.999 39.3738ZM22.9365 43.3397L24.8948 46.8275L24.895 46.8274L22.9365 43.3397ZM17.0615 43.3397L15.103 46.8274L15.1033 46.8275L17.0615 43.3397ZM9.99902 39.3738L7.9578 42.8138L7.99889 42.8382L8.04054 42.8616L9.99902 39.3738ZM3.03418 35.241L0.992933 38.681L0.992961 38.681L3.03418 35.241ZM0.0966797 30.1522L-3.90304 30.1999L-3.90303 30.2L0.0966797 30.1522ZM0 22.0535L-3.99972 22.0058L-4.00029 22.0535L-3.99972 22.1013L0 22.0535ZM0.0966797 13.9549L-3.90303 13.907L-3.90304 13.9071L0.0966797 13.9549ZM3.03418 8.867L5.07543 12.307L5.07576 12.3068L3.03418 8.867ZM9.99902 4.73321L8.04091 1.24526L7.99889 1.26885L7.95745 1.29345L9.99902 4.73321ZM17.0615 0.768368L19.02 4.25612C19.6281 3.91463 20.3699 3.91463 20.9781 4.25612L22.9365 0.768368L24.895 -2.71939C21.8542 -4.42687 18.1439 -4.42687 15.1031 -2.71939L17.0615 0.768368ZM22.9365 0.768368L20.9784 4.25632L28.0409 8.22116L29.999 4.73321L31.9571 1.24526L24.8946 -2.71958L22.9365 0.768368ZM29.999 4.73321L27.9574 8.17297L34.9223 12.3068L36.9639 8.867L39.0054 5.42724L32.0406 1.29345L29.999 4.73321ZM36.9639 8.867L34.9226 12.307C35.5224 12.6629 35.8933 13.3053 35.9017 14.0027L39.9014 13.9549L43.9011 13.907C43.8594 10.42 42.0043 7.20672 39.0051 5.42704L36.9639 8.867ZM39.9014 13.9549L35.9017 14.0026L35.9983 22.1013L39.998 22.0535L43.9978 22.0058L43.9011 13.9071L39.9014 13.9549ZM39.998 22.0535L35.9983 22.0058L35.9017 30.1044L39.9014 30.1522L43.9011 30.1999L43.9978 22.1013L39.998 22.0535ZM39.9014 30.1522L35.9017 30.1044C35.8933 30.8025 35.5218 31.4455 34.9226 31.8011L36.9639 35.241L39.0051 38.681C42.0049 36.9009 43.8594 33.6864 43.9011 30.2L39.9014 30.1522ZM36.9639 35.241L34.9226 31.8011L27.9578 35.9339L29.999 39.3738L32.0402 42.8138L39.0051 38.681L36.9639 35.241ZM29.999 39.3738L28.0405 35.8861L20.978 39.8519L22.9365 43.3397L24.895 46.8274L31.9575 42.8616L29.999 39.3738ZM22.9365 43.3397L20.9783 39.8518C20.3702 40.1932 19.6279 40.1932 19.0198 39.8518L17.0615 43.3397L15.1033 46.8275C18.1438 48.5346 21.8542 48.5346 24.8948 46.8275L22.9365 43.3397ZM17.0615 43.3397L19.02 39.8519L11.9575 35.8861L9.99902 39.3738L8.04054 42.8616L15.103 46.8274L17.0615 43.3397ZM9.99902 39.3738L12.0402 35.9339L5.0754 31.8011L3.03418 35.241L0.992961 38.681L7.9578 42.8138L9.99902 39.3738ZM3.03418 35.241L5.07543 31.8011C4.47623 31.4455 4.10474 30.8025 4.09639 30.1044L0.0966797 30.1522L-3.90303 30.2C-3.86137 33.6864 -2.00684 36.9009 0.992933 38.681L3.03418 35.241ZM0.0966797 30.1522L4.09639 30.1044L3.99972 22.0058L0 22.0535L-3.99972 22.1013L-3.90304 30.1999L0.0966797 30.1522ZM0 22.0535L3.99972 22.1013L4.09639 14.0026L0.0966797 13.9549L-3.90304 13.9071L-3.99972 22.0058L0 22.0535ZM0.0966797 13.9549L4.09639 14.0027C4.10474 13.3053 4.47565 12.6629 5.07543 12.307L3.03418 8.867L0.992932 5.42704C-2.00621 7.20672 -3.86132 10.42 -3.90303 13.907L0.0966797 13.9549ZM3.03418 8.867L5.07576 12.3068L12.0406 8.17297L9.99902 4.73321L7.95745 1.29345L0.992604 5.42724L3.03418 8.867ZM9.99902 4.73321L11.9571 8.22116L19.0196 4.25632L17.0615 0.768368L15.1034 -2.71958L8.04091 1.24526L9.99902 4.73321Z" fill="black" fill-opacity="0.11" style="mix-blend-mode:overlay" mask="url(#path-3-inside-1_3006_535)"/>
<g filter="url(#filter0_d_3006_535)">
<path d="M19.2704 30.2814C19.5466 30.1471 19.8693 30.1471 20.1454 30.2814L21.9892 31.1789C22.4639 31.4099 22.6781 31.9699 22.4774 32.4582L20.6327 36.9445C20.2929 37.7704 19.123 37.7704 18.7831 36.9445L16.9384 32.4582C16.7377 31.9701 16.9513 31.41 17.4257 31.1789L19.2704 30.2814ZM18.8642 9.59102C19.2175 8.80364 20.336 8.80364 20.6894 9.59102L23.3632 15.5481C23.5086 15.872 23.8148 16.0948 24.1679 16.133L30.6601 16.8352C31.5178 16.9282 31.8631 17.9912 31.2235 18.5705L26.3837 22.9543C26.1206 23.1927 26.0033 23.5531 26.0761 23.9006L27.4149 30.2922C27.5914 31.1365 26.6878 31.7931 25.9394 31.3645L20.2743 28.1164C19.9662 27.9398 19.5873 27.9398 19.2792 28.1164L13.6142 31.3645C12.8656 31.7933 11.9621 31.1366 12.1386 30.2922L13.4765 23.9006C13.5493 23.553 13.432 23.1927 13.1688 22.9543L8.32998 18.5705C7.69039 17.9911 8.03552 16.928 8.89346 16.8352L15.3856 16.133C15.7387 16.0948 16.0449 15.872 16.1903 15.5481L18.8642 9.59102ZM19.7763 18.2043C17.9567 18.2046 16.4814 19.6796 16.4813 21.4992C16.4814 23.3189 17.9566 24.7939 19.7763 24.7941C21.5962 24.7941 23.0721 23.3191 23.0722 21.4992C23.0721 19.6794 21.5961 18.2043 19.7763 18.2043Z" fill="#773E45"/>
</g>
</g>
<defs>
<filter id="filter0_d_3006_535" x="4" y="5.00049" width="31.5537" height="36.5635" filterUnits="userSpaceOnUse" color-interpolation-filters="sRGB">
<feFlood flood-opacity="0" result="BackgroundImageFix"/>
<feColorMatrix in="SourceAlpha" type="matrix" values="0 0 0 0 0 0 0 0 0 0 0 0 0 0 0 0 0 0 127 0" result="hardAlpha"/>
<feOffset/>
<feGaussianBlur stdDeviation="2"/>
<feComposite in2="hardAlpha" operator="out"/>
<feColorMatrix type="matrix" values="0 0 0 0 1 0 0 0 0 1 0 0 0 0 1 0 0 0 0.65 0"/>
<feBlend mode="normal" in2="BackgroundImageFix" result="effect1_dropShadow_3006_535"/>
<feBlend mode="normal" in="SourceGraphic" in2="effect1_dropShadow_3006_535" result="shape"/>
</filter>
<radialGradient id="paint0_radial_3006_535" cx="0" cy="0" r="1" gradientTransform="matrix(10.232 17.8204 -16.1599 9.38158 13.9157 12.5791)" gradientUnits="userSpaceOnUse">
<stop offset="0.0192308" stop-color="white"/>
<stop offset="1" stop-color="white" stop-opacity="0"/>
</radialGradient>
<clipPath id="clip0_3006_535">
<rect width="40" height="53" fill="white"/>
</clipPath>
</defs>
</svg>
