<svg width="400" height="300" viewBox="0 0 400 300" fill="none" xmlns="http://www.w3.org/2000/svg">
<path d="M146.542 30.1754C165.358 29.4082 189.075 31.2112 207.461 34.5367C222.963 37.8197 243.156 41.7984 253.386 54.9862C256.513 59.0202 256.511 64.9707 256.646 69.8117C256.933 79.9457 257.656 92.2814 255.803 102.239C262.933 97.3557 274.408 89.0544 282.636 87.0987C285.726 86.3644 288.918 86.3804 292.038 86.9057C313.656 90.5442 336.243 118.12 348.341 135.231C363.813 157.109 387.808 197.645 382.961 225.272C381.188 235.385 375.973 239.467 367.963 245.02C360.863 249.942 343.331 261.377 335.473 263.555C332.193 264.462 329.071 264.542 325.731 263.912C304.906 259.99 282.576 232.6 271.096 215.922C267.146 210.567 263.601 204.572 260.271 198.827C260.698 204.045 260.983 209.27 261.123 214.502C261.258 222.135 261.571 233.57 258.968 240.622C258.088 243 256.788 245.02 255.018 246.83C238.756 263.465 189.059 266.997 166.049 267.277C140.614 267.587 82.383 265.39 63.8862 247.092C62.0605 245.285 60.7185 243.307 59.9422 240.85C58.0732 234.93 57.7522 214.672 57.7655 207.302C57.785 196.487 58.1887 191.745 66.0902 183.845C60.6342 179.276 58.4465 175.912 58.0785 168.744C57.4612 157.166 57.2435 145.557 57.5135 133.966C57.6767 126.959 60.034 123.222 65.1912 118.501C63.386 117.393 61.5382 115.953 59.9765 114.529C53.172 108.325 53.9967 99.3249 53.6365 90.8914C53.3167 83.4019 52.1295 66.2204 54.157 59.6837C55.0105 56.9314 56.6842 54.4372 58.6342 52.3404C75.0075 34.7357 123.399 31.1309 146.542 30.1754Z" fill="#424141"/>
<path d="M57.0776 67.6662C57.3699 61.7587 57.8974 58.0375 62.6421 53.8725C76.3829 41.811 108.189 36.7157 125.809 35.2192C140.878 34.0074 156.007 33.7149 171.111 34.3439C173.329 34.3339 174.939 34.4249 177.124 34.5979C179.711 34.5112 185.269 35.1864 187.815 35.4502C200.148 36.7282 229.106 41.7302 238.731 48.5024C242.508 49.6699 248.693 53.8304 250.503 57.5282C251.678 59.9297 251.838 61.41 251.996 64.0692C249.716 66.6582 244.566 69.7427 241.353 70.7822C240.248 71.4827 239.091 72.0337 237.888 72.5469C234.393 74.0407 230.628 75.0112 226.986 76.0912C189.744 87.1314 133.56 86.9254 95.5781 79.6867C87.6166 78.1692 79.5256 76.3229 71.8509 73.6809C68.0249 72.3637 64.3104 70.7482 60.5636 69.2257L57.0776 67.6662Z" fill="#807F7F"/>
<path d="M57.0776 67.6662C57.3699 61.7587 57.8974 58.0375 62.6421 53.8725C76.3829 41.811 108.189 36.7157 125.809 35.2192C140.878 34.0074 156.007 33.7149 171.111 34.3439L172.77 34.7222C172.555 35.2187 172.671 34.9899 171.979 35.3302C145.908 34.8664 87.7154 38.1642 68.3754 56.6604C66.6826 58.2792 64.9069 60.1687 63.7404 62.2154C62.9861 63.5389 61.3686 68.6502 60.5636 69.2257L57.0776 67.6662Z" fill="#AEACAD"/>
<path d="M238.731 48.5024C242.508 49.6699 248.693 53.8304 250.503 57.5282C251.678 59.9297 251.838 61.4099 251.996 64.0692C249.716 66.6582 244.566 69.7427 241.353 70.7822C241.806 65.2982 244.358 60.4724 241.658 54.6102C240.903 52.9717 239.266 50.0172 238.731 48.5024Z" fill="#636262"/>
<path d="M171.111 34.3439C173.329 34.3339 174.939 34.4249 177.124 34.5979C175.83 35.6992 173.705 35.3862 171.979 35.3302C172.671 34.9899 172.555 35.2187 172.77 34.7222L171.111 34.3439Z" fill="#9D9E9E"/>
<path d="M151.848 39.6767C165.993 39.0497 202.802 41.2207 213.413 50.0977C214.673 51.1499 215.771 52.5457 215.858 54.2462C215.933 55.6879 215.221 56.8652 214.251 57.8702C205.778 66.6532 170.359 68.7049 158.309 68.8149C143.788 68.9412 107.079 68.0402 95.8801 58.5914C94.6343 57.5404 93.5043 56.1562 93.4111 54.4622C93.3356 53.0954 94.0358 51.9382 94.9443 50.9789C104.069 41.3469 138.583 40.0102 151.848 39.6767Z" fill="#424141"/>
<path d="M276.816 93.6407C300.126 77.6927 336.703 124.615 347.888 141.151C352.131 147.468 356.176 153.914 360.021 160.48C361.351 162.767 363.624 166.547 364.656 168.834C370.116 178.081 385.708 216.525 378.203 226.045C379.763 229.365 373.769 236.355 370.834 238.082C367.984 237.83 365.416 237.355 362.726 236.277C362.164 236.052 362.416 236.08 361.746 236.047C359.024 234.725 356.253 233.79 353.666 232.072C324.801 212.91 303.331 180.655 288.631 149.783C281.251 134.291 274.026 114.216 276.244 97.2162C276.399 95.9269 276.504 94.9057 276.816 93.6407Z" fill="#807F7F"/>
<path d="M276.816 93.6407C300.126 77.6927 336.703 124.615 347.888 141.151C352.131 147.468 356.176 153.914 360.021 160.48C361.351 162.767 363.623 166.547 364.656 168.834C364.391 168.902 363.831 169.017 363.633 168.704C348.293 144.386 310.943 86.1357 276.243 97.2162C276.398 95.9269 276.503 94.9057 276.816 93.6407Z" fill="#AEACAD"/>
<path d="M378.203 226.045C379.763 229.365 373.768 236.355 370.833 238.082C367.983 237.83 365.416 237.355 362.726 236.277C362.163 236.052 362.416 236.08 361.746 236.047C368.056 234.68 373.956 230.855 378.203 226.045Z" fill="#505050"/>
<path d="M306.293 114.149C331.701 113.759 386.153 202.085 358.736 207.55C353.826 207.712 349.036 205.267 345.193 202.415C326.326 188.41 301.956 150.849 298.716 127.818C298.206 124.187 298.231 119.839 300.621 116.813C302.196 114.818 303.908 114.377 306.293 114.149Z" fill="#424141"/>
<path d="M306.381 141.023C318.063 152.383 332.706 177.013 339.468 191.877C338.051 191.092 335.601 188.065 334.463 186.74C325.296 175.981 317.423 164.182 311.003 151.587C309.661 148.988 307.128 143.816 306.381 141.023Z" fill="#ECECEB"/>
<path d="M247.916 184.617C251.166 186.942 259.188 193.5 255.278 198.082C251.393 202.635 240.408 206.23 234.603 207.877C231.638 208.8 228.651 209.645 225.641 210.41C184.095 220.632 122.485 219.58 80.9204 207.882C74.0564 205.95 68.1266 204.095 61.9841 200.377C62.4421 196.325 62.4671 194.095 64.9139 190.81C66.2136 189.075 68.2149 187.712 69.9596 186.407C105.009 206.447 213.881 207.015 247.916 184.617Z" fill="#636262"/>
<path d="M247.916 184.617C251.166 186.942 259.188 193.5 255.278 198.082C251.393 202.635 240.408 206.23 234.603 207.877C231.796 197.945 227.681 200.225 219.393 201.837C215.256 202.675 211.091 203.377 206.908 203.937C190.637 205.912 174.259 206.877 157.869 206.825C130.098 206.685 100.571 204.272 73.9481 195.457C70.9496 194.465 67.1448 193.06 64.9138 190.81C66.2136 189.075 68.2148 187.712 69.9596 186.407C105.009 206.447 213.881 207.015 247.916 184.617Z" fill="#505050"/>
<path d="M64.4898 124.621C65.7865 122.972 67.5758 121.564 69.1675 120.15C80.5225 127.792 118.845 133.109 133.718 134.398C143.114 135.167 152.54 135.521 161.967 135.459C176.366 135.268 190.828 133.912 204.983 131.253C208.648 130.564 212.278 129.32 215.876 128.616C223.311 127.161 229.711 124.855 236.816 122.492C235.566 130.528 235.783 133.024 236.871 140.874C235.598 141.224 234.293 141.604 233.016 141.907L231.011 142.547C229.618 142.947 228.296 143.327 226.888 143.664C220.026 145.083 213.216 146.666 206.298 147.807C198.933 149.022 191.442 149.766 184.006 150.4C150.256 153.275 101.314 150.927 69.7885 138.781C66.9698 137.695 64.1288 136.642 61.446 135.245C61.7115 131.307 61.828 127.68 64.4898 124.621Z" fill="#AEACAD"/>
<path d="M64.49 124.621C65.7867 122.972 67.576 121.564 69.1677 120.15C80.5227 127.792 118.845 133.109 133.718 134.398C143.114 135.167 152.54 135.521 161.967 135.459C176.366 135.268 190.828 133.912 204.983 131.253C208.648 130.564 212.279 129.32 215.876 128.616C223.311 127.161 229.711 124.855 236.816 122.492C235.566 130.528 235.784 133.024 236.871 140.874C235.599 141.224 234.293 141.604 233.016 141.907L231.011 142.547C229.618 142.947 228.296 143.327 226.888 143.664C226.021 141.293 226.269 137.107 223.841 135.484C221.886 134.178 216.026 135.823 213.543 136.266C210.501 136.794 207.446 137.262 204.383 137.67C164.976 143.037 124.922 141.23 86.1585 132.335C80.208 130.909 69.4192 128.345 64.49 124.621Z" fill="#807F7F"/>
<path d="M252.721 67.9247C252.766 71.8484 253.213 75.7574 253.248 79.6822C253.258 80.6947 253.308 81.6969 253.456 82.6999C249.373 85.2744 232.141 92.3022 227.678 92.5859L227.453 92.6762C219.466 95.7952 206.876 97.5709 198.348 98.7047C168.836 102.778 138.898 102.689 109.411 98.4402C91.2361 95.9617 76.2736 93.0579 59.2084 85.5522C58.5184 85.3022 58.4836 85.3224 57.8829 84.8502C56.7741 82.6039 56.9479 73.6102 56.9019 70.5134C58.2749 71.1617 59.5301 71.9199 60.8409 72.6834C99.1901 89.1254 149.499 89.3437 190.759 86.1294C206.131 84.9319 225.278 80.7649 239.681 75.1942C244.756 72.9039 248.151 71.2567 252.721 67.9247Z" fill="#807F7F"/>
<path d="M252.721 67.9247C252.766 71.8484 253.213 75.7574 253.248 79.6822C253.258 80.6947 253.308 81.6969 253.456 82.6999C249.373 85.2744 232.141 92.3022 227.678 92.5859C228.166 91.4422 230.353 89.0442 231.148 87.9862C232.851 85.7199 239.186 77.5377 239.681 75.1942C244.756 72.9039 248.151 71.2567 252.721 67.9247Z" fill="#636262"/>
<path d="M56.9019 70.5134C58.2749 71.1617 59.5301 71.9199 60.8409 72.6834C60.1539 75.3127 60.1434 84.5384 59.2084 85.5522C58.5184 85.3022 58.4836 85.3224 57.8829 84.8502C56.7741 82.6039 56.9479 73.6102 56.9019 70.5134Z" fill="#AEACAD"/>
<path d="M62.0498 217.728C61.71 213.46 61.594 208.08 61.6078 203.812C78.564 211.977 97.2685 215.898 115.885 218.01C154.022 222.335 198.071 222.203 235.039 211.138C236.181 215.29 233.914 221.625 231.991 225.388C224.209 228.148 213.564 229.825 205.299 231.038C175.488 235.383 145.217 235.555 115.359 231.55C96.5008 229.115 79.3643 225.77 62.0498 217.728Z" fill="#636262"/>
<path d="M261.068 104.137C261.841 101.822 271.106 96.6537 273.626 95.174C273.433 96.4682 273.296 97.7657 272.873 99.0017C272.791 104.955 272.798 113.254 274.268 119.209C282.831 153.903 304.806 189.792 329.218 215.655C336.738 223.62 346.996 232.632 356.516 237.237C361.798 239.995 361.568 239.657 367.063 240.665C366.106 241.572 355.521 249.03 354.771 249.12C352.278 249.412 336.341 239.922 334.606 237.43C330.148 234.737 321.383 226.562 317.698 222.83C290.768 195.542 260.481 143.049 261.068 104.137Z" fill="#807F7F"/>
<path d="M356.516 237.237C361.798 239.995 361.568 239.657 367.063 240.665C366.106 241.572 355.521 249.03 354.771 249.12C352.278 249.412 336.341 239.922 334.606 237.43C338.831 237.082 352.311 238.912 356.516 237.237Z" fill="#505050"/>
<path d="M261.068 104.137C261.841 101.822 271.106 96.6537 273.626 95.174C273.433 96.4682 273.296 97.7657 272.873 99.0017C270.696 100.212 263.178 104.054 261.068 104.137Z" fill="#AEACAD"/>
<path d="M61.0857 138.185C62.9164 139.108 64.7657 139.994 66.6329 140.842C75.2127 144.746 88.7152 147.93 98.0089 149.55C134.604 155.928 174.11 156.509 210.766 150.149C215.213 149.377 223.368 148.116 227.351 146.62C227.986 148.956 228.316 153.467 228.531 155.991C228.408 157.087 228.201 159.486 227.471 160.183C225.751 160.634 223.181 161.396 221.506 161.716C181.001 170.837 131.563 170.799 90.8894 161.692C81.6972 159.634 70.0587 156.695 61.8257 152.067C61.2387 148.805 61.1869 141.741 61.0857 138.185Z" fill="#807F7F"/>
<path d="M61.5403 155.329L61.737 155.44C67.154 158.438 73.6315 160.383 79.596 162.091C114.944 172.214 155.335 173.154 191.767 169.827C198.96 169.17 213.014 167.118 220.001 165.162L222.571 164.743C222.761 163.027 222.701 162.935 221.506 161.716C223.181 161.396 225.751 160.634 227.471 160.183L227.794 160.33C227.934 161.519 228.476 162.128 229.149 163.102C233.294 162.082 237.831 160.431 241.781 159.54C242.924 163.306 244.441 166.474 245.796 170.119C237.256 174.067 202.673 181.663 192.895 181.349C186.153 182.627 177.889 182.915 170.968 183.247C138.479 184.817 91.8603 181.506 62.0133 168.004C61.5365 165.105 61.573 158.531 61.5403 155.329Z" fill="#AEACAD"/>
<path d="M229.148 163.102C233.293 162.082 237.831 160.431 241.781 159.54C242.923 163.306 244.441 166.474 245.796 170.119C237.256 174.067 202.673 181.663 192.894 181.349C195.507 179.477 200.608 177.66 203.635 176.133C206.867 174.502 210.336 172.801 213.491 171.032C215.916 169.673 218.001 167.592 220.661 166.111L220.988 165.931L220.981 165.757L220.001 165.162L222.571 164.743C222.761 163.027 222.701 162.935 221.506 161.716C223.181 161.396 225.751 160.634 227.471 160.183L227.793 160.33C227.933 161.519 228.476 162.128 229.148 163.102Z" fill="#807F7F"/>
<path d="M227.471 160.183L227.793 160.33C227.933 161.519 228.476 162.128 229.148 163.102C226.851 163.746 224.906 164.241 222.571 164.743C222.761 163.027 222.701 162.935 221.506 161.716C223.181 161.396 225.751 160.634 227.471 160.183Z" fill="#383738"/>
<path d="M62.1995 171.543C63.1002 171.849 64.6685 172.578 65.652 172.978C74.0017 176.374 82.8822 178.585 91.7332 180.392C134.183 189.062 180.859 188.875 223.248 179.784C231.641 177.985 239.063 176.376 246.928 173.03C247.691 174.402 248.656 176.744 249.323 178.236C248.443 179.042 247.191 180.005 246.241 180.778C240.471 185.087 233.768 187.552 226.938 189.597C190.529 200.492 106.625 201.74 73.3167 183.667C67.3897 180.453 64.1455 178.158 62.1995 171.543Z" fill="#969595"/>
<path d="M168.726 119.263C170.338 118.97 176.885 118.741 178.861 118.617C184.34 118.252 189.808 117.742 195.261 117.088C210.401 115.253 225.383 112.818 239.883 107.985C244.076 106.588 248.111 104.955 252.336 103.604C246.641 109.586 242.463 109.638 238.223 117.462C233.138 120.47 220.751 123.919 214.738 124.989C179.12 131.327 140.916 132.144 105.127 126.685C93.1232 124.854 77.1202 121.374 67.026 114.657C62.547 112.579 60.073 109.881 58.366 105.204C58.202 104.752 58.049 104.295 57.9067 103.836C66.1827 107.441 74.769 110.288 83.5595 112.341C108.178 118.203 143.541 120.798 168.726 119.263Z" fill="#636262"/>
<path d="M57.9067 103.836C66.1827 107.441 74.769 110.288 83.5595 112.341C108.178 118.203 143.541 120.798 168.726 119.263C169.42 119.33 169.975 119.461 170.651 119.605C170.166 119.999 162.143 121.458 161.045 121.619C139.889 124.717 117.744 123.354 96.5832 120.7C92.9777 120.248 89.137 119.695 85.5637 118.971C82.357 118.345 79.1857 117.551 76.0627 116.591C73.7862 115.894 69.161 114.007 67.026 114.657C62.547 112.579 60.073 109.881 58.366 105.204C58.202 104.752 58.049 104.295 57.9067 103.836Z" fill="#807F7F"/>
<path d="M61.9893 221.225C67.1315 223.385 73.034 225.862 78.3643 227.41C90.3853 230.897 102.788 233.192 115.18 234.785C151.17 239.405 189.839 238.572 225.284 230.512C224.134 232.09 221.824 233.097 220.259 234.227C212.711 239.675 203.781 242.477 195.738 246.685C190.742 248.505 180.11 248.982 174.614 249.177C138.12 250.49 96.1363 247.967 62.3393 233.6C62.0475 229.59 62.0538 225.267 61.9893 221.225Z" fill="#636262"/>
<path d="M58.0332 100.326C57.6282 99.2284 57.0847 89.0484 57.5069 88.1324C58.3049 88.0859 58.3967 88.3184 59.2407 88.7644C100.71 107.661 173.52 108.026 217.723 98.7269C216.543 102.091 193.263 112.079 189.189 114.051C184.704 115.238 173.523 115.808 168.679 116.015C140.398 117.225 110.639 115.241 83.0285 108.843C74.7357 106.922 65.5687 104.327 58.0332 100.326Z" fill="#807F7F"/>
<path d="M58.0332 100.326C57.6282 99.2284 57.0847 89.0484 57.5069 88.1324C58.3049 88.0859 58.3967 88.3184 59.2407 88.7644C58.853 91.4312 58.9427 98.6142 58.0332 100.326Z" fill="#AEACAD"/>
<path d="M240.006 128.495C239.956 122.08 240.896 119.29 244.853 114.082C245.896 145.715 264.726 183.39 283.161 208.797C283.721 209.325 286.023 212.627 286.563 213.365C288.588 216.12 290.463 218.73 292.733 221.33C301.073 230.887 310.238 240.83 320.163 248.72C325.556 253.005 330.791 255.955 336.708 259.26C334.243 260.097 332.638 260.445 329.953 260.38C318.041 260.092 304.508 248.687 296.376 240.555C290.876 235.055 285.263 228.46 280.418 222.407C278.751 220.347 277.393 217.757 275.791 215.677C270.896 209.687 267.381 203.087 263.411 196.557C258.616 188.665 254.323 181.006 250.998 172.345C250.126 170.072 248.613 167.645 247.816 165.364C244.216 155.087 240.586 144.829 239.676 133.901C239.501 131.836 239.958 130.568 240.006 128.495Z" fill="#505050"/>
<path d="M240.006 128.495C239.956 122.08 240.896 119.29 244.853 114.082C245.896 145.715 264.726 183.39 283.161 208.797C282.766 208.935 282.958 208.882 282.481 208.805C269.316 197.835 257.094 174.752 250.186 159.266C247.414 153.047 241.049 135.177 240.006 128.495Z" fill="#807F7F"/>
<path d="M247.819 112.232C248.534 111.492 256.529 106.052 257.786 105.277L258.181 105.462L258.459 106.498C257.656 108.366 258.159 112.155 258.379 114.245C259.776 127.539 264.021 141.305 268.969 153.699C281.599 184.442 300.891 212.005 325.451 234.397C318.316 233.55 303.649 223.722 297.071 220.36C292.679 216.6 290.046 212.912 286.679 208.285C269.194 184.275 254.026 154.713 249.079 125.192C248.679 122.797 247.446 114.437 247.819 112.232Z" fill="#807F7F"/>
<path d="M247.818 112.232C248.533 111.492 256.528 106.052 257.786 105.277L258.181 105.462L258.458 106.498C258.156 106.829 248.886 112.273 248.288 112.401L247.818 112.232Z" fill="#9D9E9E"/>
<path d="M217.723 98.727L217.983 98.6457C220.053 98.0172 222.453 97.8067 224.311 97.2415C232.386 94.7832 246.616 90.9675 253.328 85.9237C253.178 90.5607 252.768 95.1857 252.101 99.7767C240.636 106.425 214.991 111.171 201.417 113.154C198.16 113.63 192.507 114.609 189.303 114.071C189.265 114.065 189.227 114.058 189.189 114.051C193.263 112.079 216.543 102.091 217.723 98.727Z" fill="#636262"/>
<path d="M225.283 230.513L225.533 230.438C228.001 229.707 230.946 229.343 233.261 228.63C240.728 226.335 250.448 223.362 257.213 219.75C257.068 224.012 257.053 228.392 256.621 232.615C245.433 239.21 219.651 244.02 206.312 246.168C203.779 246.575 199.468 247.243 196.809 247.138C196.573 247.128 195.982 246.827 195.738 246.685C203.781 242.477 212.711 239.675 220.258 234.228C221.823 233.098 224.133 232.09 225.283 230.513Z" fill="#505050"/>
<path d="M297.071 220.36C303.649 223.722 318.316 233.55 325.451 234.397C325.934 234.615 329.656 238.025 330.496 238.692C336.569 243.51 343.611 248.282 350.944 250.922C347.779 253.272 343.019 256.18 339.389 257.66C337.544 256.205 335.436 255.13 333.416 253.942C330.239 252.072 327.139 250.16 324.234 247.88C319.971 244.537 297.564 224.465 297.071 220.36Z" fill="#505050"/>
<path d="M235.038 211.137C241.756 209.915 251.243 205.137 256.633 200.997C256.648 205.365 257.413 212.162 257.138 216.075C250.316 219.55 244.848 222.095 237.348 224.097C235.848 224.497 233.481 225.347 231.991 225.387C233.913 221.625 236.181 215.29 235.038 211.137Z" fill="#505050"/>
<path d="M231.011 142.547L233.016 141.907C234.286 142.087 235.551 143.044 236.326 144.022L237.281 143.645L237.648 143.917C237.831 145.54 238.171 148.59 238.668 150.009C241.876 159.163 238.596 156.612 231.823 159.26C230.511 159.617 229.111 160.024 227.793 160.33L227.471 160.183C228.201 159.486 228.408 157.087 228.531 155.991C228.316 153.467 227.986 148.956 227.351 146.62C228.416 146.215 230.106 145.774 231.243 145.444C231.093 144.855 231.143 143.394 231.011 142.547Z" fill="#505050"/>
<path d="M231.011 142.547L233.016 141.907C234.286 142.087 235.551 143.044 236.326 144.022C234.416 144.75 233.281 145.061 231.243 145.444C231.093 144.855 231.143 143.394 231.011 142.547Z" fill="#383738"/>
<path d="M228.531 155.991L229.333 156.592C230.208 157.248 231.433 158.24 231.823 159.26C230.511 159.617 229.111 160.024 227.793 160.33L227.471 160.183C228.201 159.486 228.408 157.087 228.531 155.991Z" fill="#636262"/>
</svg>
