<svg width="400" height="300" viewBox="0 0 400 300" fill="none" xmlns="http://www.w3.org/2000/svg">
<path d="M128.542 30.1754C147.358 29.4082 171.075 31.2112 189.461 34.5367C204.963 37.8197 225.156 41.7984 235.386 54.9862C238.513 59.0202 238.511 64.9707 238.646 69.8117C238.933 79.9457 239.656 92.2814 237.803 102.239C244.933 97.3557 256.408 89.0544 264.636 87.0987C267.726 86.3644 270.918 86.3804 274.038 86.9057C295.656 90.5442 318.243 118.12 330.341 135.231C345.813 157.109 369.808 197.645 364.961 225.272C363.188 235.385 357.973 239.467 349.963 245.02C342.863 249.942 325.331 261.377 317.473 263.555C314.193 264.462 311.071 264.542 307.731 263.912C286.906 259.99 264.576 232.6 253.096 215.922C249.146 210.567 245.601 204.572 242.271 198.827C242.698 204.045 242.983 209.27 243.123 214.502C243.258 222.135 243.571 233.57 240.968 240.622C240.088 243 238.788 245.02 237.018 246.83C220.756 263.465 171.059 266.997 148.049 267.277C122.614 267.587 64.383 265.39 45.8862 247.092C44.0605 245.285 42.7185 243.307 41.9422 240.85C40.0732 234.93 39.7522 214.672 39.7655 207.302C39.785 196.487 40.1887 191.745 48.0902 183.845C42.6342 179.276 40.4465 175.912 40.0785 168.744C39.4612 157.166 39.2435 145.557 39.5135 133.966C39.6767 126.959 42.034 123.222 47.1912 118.501C45.386 117.393 43.5382 115.953 41.9765 114.529C35.172 108.325 35.9967 99.3249 35.6365 90.8914C35.3167 83.4019 34.1295 66.2204 36.157 59.6837C37.0105 56.9314 38.6842 54.4372 40.6342 52.3404C57.0075 34.7357 105.399 31.1309 128.542 30.1754Z" fill="#424141"/>
<path d="M39.0776 67.6662C39.3699 61.7587 39.8974 58.0375 44.6421 53.8725C58.3829 41.811 90.1889 36.7157 107.809 35.2192C122.878 34.0074 138.007 33.7149 153.111 34.3439C155.329 34.3339 156.939 34.4249 159.124 34.5979C161.711 34.5112 167.269 35.1864 169.815 35.4502C182.148 36.7282 211.106 41.7302 220.731 48.5024C224.508 49.6699 230.693 53.8304 232.503 57.5282C233.678 59.9297 233.838 61.41 233.996 64.0692C231.716 66.6582 226.566 69.7427 223.353 70.7822C222.248 71.4827 221.091 72.0337 219.888 72.5469C216.393 74.0407 212.628 75.0112 208.986 76.0912C171.744 87.1314 115.56 86.9254 77.5781 79.6867C69.6166 78.1692 61.5256 76.3229 53.8509 73.6809C50.0249 72.3637 46.3104 70.7482 42.5636 69.2257L39.0776 67.6662Z" fill="#807F7F"/>
<path d="M39.0776 67.6662C39.3699 61.7587 39.8974 58.0375 44.6421 53.8725C58.3829 41.811 90.1889 36.7157 107.809 35.2192C122.878 34.0074 138.007 33.7149 153.111 34.3439L154.77 34.7222C154.555 35.2187 154.671 34.9899 153.979 35.3302C127.908 34.8664 69.7154 38.1642 50.3754 56.6604C48.6826 58.2792 46.9069 60.1687 45.7404 62.2154C44.9861 63.5389 43.3686 68.6502 42.5636 69.2257L39.0776 67.6662Z" fill="#AEACAD"/>
<path d="M220.731 48.5024C224.508 49.6699 230.693 53.8304 232.503 57.5282C233.678 59.9297 233.838 61.4099 233.996 64.0692C231.716 66.6582 226.566 69.7427 223.353 70.7822C223.806 65.2982 226.358 60.4724 223.658 54.6102C222.903 52.9717 221.266 50.0172 220.731 48.5024Z" fill="#636262"/>
<path d="M153.111 34.3439C155.329 34.3339 156.939 34.4249 159.124 34.5979C157.83 35.6992 155.705 35.3862 153.979 35.3302C154.671 34.9899 154.555 35.2187 154.77 34.7222L153.111 34.3439Z" fill="#9D9E9E"/>
<path d="M133.848 39.6767C147.993 39.0497 184.802 41.2207 195.413 50.0977C196.673 51.1499 197.771 52.5457 197.858 54.2462C197.933 55.6879 197.221 56.8652 196.251 57.8702C187.778 66.6532 152.359 68.7049 140.309 68.8149C125.788 68.9412 89.0788 68.0402 77.8801 58.5914C76.6343 57.5404 75.5043 56.1562 75.4111 54.4622C75.3356 53.0954 76.0358 51.9382 76.9443 50.9789C86.0691 41.3469 120.583 40.0102 133.848 39.6767Z" fill="#424141"/>
<path d="M258.816 93.6407C282.126 77.6927 318.703 124.615 329.888 141.151C334.131 147.468 338.176 153.914 342.021 160.48C343.351 162.767 345.624 166.547 346.656 168.834C352.116 178.081 367.708 216.525 360.203 226.045C361.763 229.365 355.769 236.355 352.834 238.082C349.984 237.83 347.416 237.355 344.726 236.277C344.164 236.052 344.416 236.08 343.746 236.047C341.024 234.725 338.253 233.79 335.666 232.072C306.801 212.91 285.331 180.655 270.631 149.783C263.251 134.291 256.026 114.216 258.244 97.2162C258.399 95.9269 258.504 94.9057 258.816 93.6407Z" fill="#807F7F"/>
<path d="M258.816 93.6407C282.126 77.6927 318.703 124.615 329.888 141.151C334.131 147.468 338.176 153.914 342.021 160.48C343.351 162.767 345.623 166.547 346.656 168.834C346.391 168.902 345.831 169.017 345.633 168.704C330.293 144.386 292.943 86.1357 258.243 97.2162C258.398 95.9269 258.503 94.9057 258.816 93.6407Z" fill="#AEACAD"/>
<path d="M360.203 226.045C361.763 229.365 355.768 236.355 352.833 238.082C349.983 237.83 347.416 237.355 344.726 236.277C344.163 236.052 344.416 236.08 343.746 236.047C350.056 234.68 355.956 230.855 360.203 226.045Z" fill="#505050"/>
<path d="M288.293 114.149C313.701 113.759 368.153 202.085 340.736 207.55C335.826 207.712 331.036 205.267 327.193 202.415C308.326 188.41 283.956 150.849 280.716 127.818C280.206 124.187 280.231 119.839 282.621 116.813C284.196 114.818 285.908 114.377 288.293 114.149Z" fill="#424141"/>
<path d="M288.381 141.023C300.063 152.383 314.706 177.013 321.468 191.877C320.051 191.092 317.601 188.065 316.463 186.74C307.296 175.981 299.423 164.182 293.003 151.587C291.661 148.988 289.128 143.816 288.381 141.023Z" fill="#ECECEB"/>
<path d="M229.916 184.617C233.166 186.942 241.188 193.5 237.278 198.082C233.393 202.635 222.408 206.23 216.603 207.877C213.638 208.8 210.651 209.645 207.641 210.41C166.095 220.632 104.485 219.58 62.9204 207.882C56.0564 205.95 50.1266 204.095 43.9841 200.377C44.4421 196.325 44.4671 194.095 46.9139 190.81C48.2136 189.075 50.2149 187.712 51.9596 186.407C87.0089 206.447 195.881 207.015 229.916 184.617Z" fill="#636262"/>
<path d="M229.916 184.617C233.166 186.942 241.188 193.5 237.278 198.082C233.393 202.635 222.408 206.23 216.603 207.877C213.796 197.945 209.681 200.225 201.393 201.837C197.256 202.675 193.091 203.377 188.908 203.937C172.637 205.912 156.259 206.877 139.869 206.825C112.098 206.685 82.5708 204.272 55.9481 195.457C52.9496 194.465 49.1448 193.06 46.9138 190.81C48.2136 189.075 50.2148 187.712 51.9596 186.407C87.0088 206.447 195.881 207.015 229.916 184.617Z" fill="#505050"/>
<path d="M46.4898 124.621C47.7865 122.972 49.5758 121.564 51.1675 120.15C62.5225 127.792 100.845 133.109 115.718 134.398C125.114 135.167 134.54 135.521 143.967 135.459C158.366 135.268 172.828 133.912 186.983 131.253C190.648 130.564 194.278 129.32 197.876 128.616C205.311 127.161 211.711 124.855 218.816 122.492C217.566 130.528 217.783 133.024 218.871 140.874C217.598 141.224 216.293 141.604 215.016 141.907L213.011 142.547C211.618 142.947 210.296 143.327 208.888 143.664C202.026 145.083 195.216 146.666 188.298 147.807C180.933 149.022 173.442 149.766 166.006 150.4C132.256 153.275 83.3143 150.927 51.7885 138.781C48.9698 137.695 46.1288 136.642 43.446 135.245C43.7115 131.307 43.828 127.68 46.4898 124.621Z" fill="#AEACAD"/>
<path d="M46.49 124.621C47.7867 122.972 49.576 121.564 51.1677 120.15C62.5227 127.792 100.845 133.109 115.718 134.398C125.114 135.167 134.54 135.521 143.967 135.459C158.366 135.268 172.828 133.912 186.983 131.253C190.648 130.564 194.279 129.32 197.876 128.616C205.311 127.161 211.711 124.855 218.816 122.492C217.566 130.528 217.784 133.024 218.871 140.874C217.599 141.224 216.293 141.604 215.016 141.907L213.011 142.547C211.618 142.947 210.296 143.327 208.888 143.664C208.021 141.293 208.269 137.107 205.841 135.484C203.886 134.178 198.026 135.823 195.543 136.266C192.501 136.794 189.446 137.262 186.383 137.67C146.976 143.037 106.922 141.23 68.1585 132.335C62.208 130.909 51.4192 128.345 46.49 124.621Z" fill="#807F7F"/>
<path d="M234.721 67.9247C234.766 71.8484 235.213 75.7574 235.248 79.6822C235.258 80.6947 235.308 81.6969 235.456 82.6999C231.373 85.2744 214.141 92.3022 209.678 92.5859L209.453 92.6762C201.466 95.7952 188.876 97.5709 180.348 98.7047C150.836 102.778 120.898 102.689 91.4111 98.4402C73.2361 95.9617 58.2736 93.0579 41.2084 85.5522C40.5184 85.3022 40.4836 85.3224 39.8829 84.8502C38.7741 82.6039 38.9479 73.6102 38.9019 70.5134C40.2749 71.1617 41.5301 71.9199 42.8409 72.6834C81.1901 89.1254 131.499 89.3437 172.759 86.1294C188.131 84.9319 207.278 80.7649 221.681 75.1942C226.756 72.9039 230.151 71.2567 234.721 67.9247Z" fill="#807F7F"/>
<path d="M234.721 67.9247C234.766 71.8484 235.213 75.7574 235.248 79.6822C235.258 80.6947 235.308 81.6969 235.456 82.6999C231.373 85.2744 214.141 92.3022 209.678 92.5859C210.166 91.4422 212.353 89.0442 213.148 87.9862C214.851 85.7199 221.186 77.5377 221.681 75.1942C226.756 72.9039 230.151 71.2567 234.721 67.9247Z" fill="#636262"/>
<path d="M38.9019 70.5134C40.2749 71.1617 41.5301 71.9199 42.8409 72.6834C42.1539 75.3127 42.1434 84.5384 41.2084 85.5522C40.5184 85.3022 40.4836 85.3224 39.8829 84.8502C38.7741 82.6039 38.9479 73.6102 38.9019 70.5134Z" fill="#AEACAD"/>
<path d="M44.0498 217.728C43.71 213.46 43.594 208.08 43.6078 203.812C60.564 211.977 79.2685 215.898 97.8848 218.01C136.022 222.335 180.071 222.203 217.039 211.138C218.181 215.29 215.914 221.625 213.991 225.388C206.209 228.148 195.564 229.825 187.299 231.038C157.488 235.383 127.217 235.555 97.3588 231.55C78.5008 229.115 61.3643 225.77 44.0498 217.728Z" fill="#636262"/>
<path d="M243.068 104.137C243.841 101.822 253.106 96.6537 255.626 95.174C255.433 96.4682 255.296 97.7657 254.873 99.0017C254.791 104.955 254.798 113.254 256.268 119.209C264.831 153.903 286.806 189.792 311.218 215.655C318.738 223.62 328.996 232.632 338.516 237.237C343.798 239.995 343.568 239.657 349.063 240.665C348.106 241.572 337.521 249.03 336.771 249.12C334.278 249.412 318.341 239.922 316.606 237.43C312.148 234.737 303.383 226.562 299.698 222.83C272.768 195.542 242.481 143.049 243.068 104.137Z" fill="#807F7F"/>
<path d="M338.516 237.237C343.798 239.995 343.568 239.657 349.063 240.665C348.106 241.572 337.521 249.03 336.771 249.12C334.278 249.412 318.341 239.922 316.606 237.43C320.831 237.082 334.311 238.912 338.516 237.237Z" fill="#505050"/>
<path d="M243.068 104.137C243.841 101.822 253.106 96.6537 255.626 95.174C255.433 96.4682 255.296 97.7657 254.873 99.0017C252.696 100.212 245.178 104.054 243.068 104.137Z" fill="#AEACAD"/>
<path d="M43.0857 138.185C44.9164 139.108 46.7657 139.994 48.6329 140.842C57.2127 144.746 70.7152 147.93 80.0089 149.55C116.604 155.928 156.11 156.509 192.766 150.149C197.213 149.377 205.368 148.116 209.351 146.62C209.986 148.956 210.316 153.467 210.531 155.991C210.408 157.087 210.201 159.486 209.471 160.183C207.751 160.634 205.181 161.396 203.506 161.716C163.001 170.837 113.563 170.799 72.8894 161.692C63.6972 159.634 52.0587 156.695 43.8257 152.067C43.2387 148.805 43.1869 141.741 43.0857 138.185Z" fill="#807F7F"/>
<path d="M43.5403 155.329L43.737 155.44C49.154 158.438 55.6315 160.383 61.596 162.091C96.9438 172.214 137.335 173.154 173.767 169.827C180.96 169.17 195.014 167.118 202.001 165.162L204.571 164.743C204.761 163.027 204.701 162.935 203.506 161.716C205.181 161.396 207.751 160.634 209.471 160.183L209.794 160.33C209.934 161.519 210.476 162.128 211.149 163.102C215.294 162.082 219.831 160.431 223.781 159.54C224.924 163.306 226.441 166.474 227.796 170.119C219.256 174.067 184.673 181.663 174.895 181.349C168.153 182.627 159.889 182.915 152.968 183.247C120.479 184.817 73.8603 181.506 44.0133 168.004C43.5365 165.105 43.573 158.531 43.5403 155.329Z" fill="#AEACAD"/>
<path d="M211.148 163.102C215.293 162.082 219.831 160.431 223.781 159.54C224.923 163.306 226.441 166.474 227.796 170.119C219.256 174.067 184.673 181.663 174.894 181.349C177.507 179.477 182.608 177.66 185.635 176.133C188.867 174.502 192.336 172.801 195.491 171.032C197.916 169.673 200.001 167.592 202.661 166.111L202.988 165.931L202.981 165.757L202.001 165.162L204.571 164.743C204.761 163.027 204.701 162.935 203.506 161.716C205.181 161.396 207.751 160.634 209.471 160.183L209.793 160.33C209.933 161.519 210.476 162.128 211.148 163.102Z" fill="#807F7F"/>
<path d="M209.471 160.183L209.793 160.33C209.933 161.519 210.476 162.128 211.148 163.102C208.851 163.746 206.906 164.241 204.571 164.743C204.761 163.027 204.701 162.935 203.506 161.716C205.181 161.396 207.751 160.634 209.471 160.183Z" fill="#383738"/>
<path d="M44.1995 171.543C45.1002 171.849 46.6685 172.578 47.652 172.978C56.0017 176.374 64.8822 178.585 73.7332 180.392C116.183 189.062 162.859 188.875 205.248 179.784C213.641 177.985 221.063 176.376 228.928 173.03C229.691 174.402 230.656 176.744 231.323 178.236C230.443 179.042 229.191 180.005 228.241 180.778C222.471 185.087 215.768 187.552 208.938 189.597C172.529 200.492 88.6252 201.74 55.3167 183.667C49.3897 180.453 46.1455 178.158 44.1995 171.543Z" fill="#969595"/>
<path d="M150.726 119.263C152.338 118.97 158.885 118.741 160.861 118.617C166.34 118.252 171.808 117.742 177.261 117.088C192.401 115.253 207.383 112.818 221.883 107.985C226.076 106.588 230.111 104.955 234.336 103.604C228.641 109.586 224.463 109.638 220.223 117.462C215.138 120.47 202.751 123.919 196.738 124.989C161.12 131.327 122.916 132.144 87.127 126.685C75.1232 124.854 59.1202 121.374 49.026 114.657C44.547 112.579 42.073 109.881 40.366 105.204C40.202 104.752 40.049 104.295 39.9067 103.836C48.1827 107.441 56.769 110.288 65.5595 112.341C90.1782 118.203 125.541 120.798 150.726 119.263Z" fill="#636262"/>
<path d="M39.9067 103.836C48.1827 107.441 56.769 110.288 65.5595 112.341C90.1782 118.203 125.541 120.798 150.726 119.263C151.42 119.33 151.975 119.461 152.651 119.605C152.166 119.999 144.143 121.458 143.045 121.619C121.889 124.717 99.7437 123.354 78.5832 120.7C74.9777 120.248 71.137 119.695 67.5637 118.971C64.357 118.345 61.1857 117.551 58.0627 116.591C55.7862 115.894 51.161 114.007 49.026 114.657C44.547 112.579 42.073 109.881 40.366 105.204C40.202 104.752 40.049 104.295 39.9067 103.836Z" fill="#807F7F"/>
<path d="M43.9893 221.225C49.1315 223.385 55.034 225.862 60.3643 227.41C72.3853 230.897 84.7878 233.192 97.1795 234.785C133.17 239.405 171.839 238.572 207.284 230.512C206.134 232.09 203.824 233.097 202.259 234.227C194.711 239.675 185.781 242.477 177.738 246.685C172.742 248.505 162.11 248.982 156.614 249.177C120.12 250.49 78.1363 247.967 44.3393 233.6C44.0475 229.59 44.0538 225.267 43.9893 221.225Z" fill="#636262"/>
<path d="M40.0332 100.326C39.6282 99.2284 39.0847 89.0484 39.5069 88.1324C40.3049 88.0859 40.3967 88.3184 41.2407 88.7644C82.7105 107.661 155.52 108.026 199.723 98.7269C198.543 102.091 175.263 112.079 171.189 114.051C166.704 115.238 155.523 115.808 150.679 116.015C122.398 117.225 92.639 115.241 65.0285 108.843C56.7357 106.922 47.5687 104.327 40.0332 100.326Z" fill="#807F7F"/>
<path d="M40.0332 100.326C39.6282 99.2284 39.0847 89.0484 39.5069 88.1324C40.3049 88.0859 40.3967 88.3184 41.2407 88.7644C40.853 91.4312 40.9427 98.6142 40.0332 100.326Z" fill="#AEACAD"/>
<path d="M222.006 128.495C221.956 122.08 222.896 119.29 226.853 114.082C227.896 145.715 246.726 183.39 265.161 208.797C265.721 209.325 268.023 212.627 268.563 213.365C270.588 216.12 272.463 218.73 274.733 221.33C283.073 230.887 292.238 240.83 302.163 248.72C307.556 253.005 312.791 255.955 318.708 259.26C316.243 260.097 314.638 260.445 311.953 260.38C300.041 260.092 286.508 248.687 278.376 240.555C272.876 235.055 267.263 228.46 262.418 222.407C260.751 220.347 259.393 217.757 257.791 215.677C252.896 209.687 249.381 203.087 245.411 196.557C240.616 188.665 236.323 181.006 232.998 172.345C232.126 170.072 230.613 167.645 229.816 165.364C226.216 155.087 222.586 144.829 221.676 133.901C221.501 131.836 221.958 130.568 222.006 128.495Z" fill="#505050"/>
<path d="M222.006 128.495C221.956 122.08 222.896 119.29 226.853 114.082C227.896 145.715 246.726 183.39 265.161 208.797C264.766 208.935 264.958 208.882 264.481 208.805C251.316 197.835 239.094 174.752 232.186 159.266C229.414 153.047 223.049 135.177 222.006 128.495Z" fill="#807F7F"/>
<path d="M229.819 112.232C230.534 111.492 238.529 106.052 239.786 105.277L240.181 105.462L240.459 106.498C239.656 108.366 240.159 112.155 240.379 114.245C241.776 127.539 246.021 141.305 250.969 153.699C263.599 184.442 282.891 212.005 307.451 234.397C300.316 233.55 285.649 223.722 279.071 220.36C274.679 216.6 272.046 212.912 268.679 208.285C251.194 184.275 236.026 154.713 231.079 125.192C230.679 122.797 229.446 114.437 229.819 112.232Z" fill="#807F7F"/>
<path d="M229.818 112.232C230.533 111.492 238.528 106.052 239.786 105.277L240.181 105.462L240.458 106.498C240.156 106.829 230.886 112.273 230.288 112.401L229.818 112.232Z" fill="#9D9E9E"/>
<path d="M199.723 98.727L199.983 98.6457C202.053 98.0172 204.453 97.8067 206.311 97.2415C214.386 94.7832 228.616 90.9675 235.328 85.9237C235.178 90.5607 234.768 95.1857 234.101 99.7767C222.636 106.425 196.991 111.171 183.417 113.154C180.16 113.63 174.507 114.609 171.303 114.071C171.265 114.065 171.227 114.058 171.189 114.051C175.263 112.079 198.543 102.091 199.723 98.727Z" fill="#636262"/>
<path d="M207.283 230.513L207.533 230.438C210.001 229.707 212.946 229.343 215.261 228.63C222.728 226.335 232.448 223.362 239.213 219.75C239.068 224.012 239.053 228.392 238.621 232.615C227.433 239.21 201.651 244.02 188.312 246.168C185.779 246.575 181.468 247.243 178.809 247.138C178.573 247.128 177.982 246.827 177.738 246.685C185.781 242.477 194.711 239.675 202.258 234.228C203.823 233.098 206.133 232.09 207.283 230.513Z" fill="#505050"/>
<path d="M279.071 220.36C285.649 223.722 300.316 233.55 307.451 234.397C307.934 234.615 311.656 238.025 312.496 238.692C318.569 243.51 325.611 248.282 332.944 250.922C329.779 253.272 325.019 256.18 321.389 257.66C319.544 256.205 317.436 255.13 315.416 253.942C312.239 252.072 309.139 250.16 306.234 247.88C301.971 244.537 279.564 224.465 279.071 220.36Z" fill="#505050"/>
<path d="M217.038 211.137C223.756 209.915 233.243 205.137 238.633 200.997C238.648 205.365 239.413 212.162 239.138 216.075C232.316 219.55 226.848 222.095 219.348 224.097C217.848 224.497 215.481 225.347 213.991 225.387C215.913 221.625 218.181 215.29 217.038 211.137Z" fill="#505050"/>
<path d="M213.011 142.547L215.016 141.907C216.286 142.087 217.551 143.044 218.326 144.022L219.281 143.645L219.648 143.917C219.831 145.54 220.171 148.59 220.668 150.009C223.876 159.163 220.596 156.612 213.823 159.26C212.511 159.617 211.111 160.024 209.793 160.33L209.471 160.183C210.201 159.486 210.408 157.087 210.531 155.991C210.316 153.467 209.986 148.956 209.351 146.62C210.416 146.215 212.106 145.774 213.243 145.444C213.093 144.855 213.143 143.394 213.011 142.547Z" fill="#505050"/>
<path d="M213.011 142.547L215.016 141.907C216.286 142.087 217.551 143.044 218.326 144.022C216.416 144.75 215.281 145.061 213.243 145.444C213.093 144.855 213.143 143.394 213.011 142.547Z" fill="#383738"/>
<path d="M210.531 155.991L211.333 156.592C212.208 157.248 213.433 158.24 213.823 159.26C212.511 159.617 211.111 160.024 209.793 160.33L209.471 160.183C210.201 159.486 210.408 157.087 210.531 155.991Z" fill="#636262"/>
</svg>
