<svg width="2056" height="262" viewBox="0 0 2056 262" fill="none" xmlns="http://www.w3.org/2000/svg">
<path d="M130.84 0C203.101 1.6499e-05 261.68 58.5996 261.68 130.886C261.68 203.172 203.101 261.771 130.84 261.771C58.579 261.771 2.47376e-05 203.172 0 130.886C0 58.5996 58.579 0 130.84 0ZM130.84 76.9922C101.086 76.9923 76.9649 101.121 76.9648 130.886C76.9648 160.651 101.085 184.78 130.84 184.78C160.594 184.78 184.715 160.651 184.715 130.886C184.715 101.121 160.594 76.9922 130.84 76.9922ZM383.258 92.3906C363.783 135.45 321.692 166.085 272.142 169.132C275.359 157.054 277.073 144.362 277.073 131.271C277.073 117.81 275.261 104.773 271.866 92.3906H383.258ZM487.93 0C467.396 45.4022 421.716 76.9911 368.661 76.9912H266.705C253.347 43.4662 227.982 16.0305 195.925 0H487.93Z" fill="black"/>
<path fill-rule="evenodd" clip-rule="evenodd" d="M536.607 133C536.607 123.396 538.454 114.346 542.146 105.85C545.839 97.3535 550.824 89.9349 557.102 83.5936C563.379 77.2524 570.764 72.2348 579.257 68.5409C587.75 64.8469 596.797 63 606.398 63C615.999 63 625.046 64.8469 633.539 68.5409C642.032 72.2348 649.448 77.2524 655.787 83.5936C662.126 89.9349 667.142 97.3535 670.835 105.85C674.527 114.346 676.374 123.396 676.374 133C676.374 142.604 674.527 151.654 670.835 160.15C667.142 168.646 662.126 176.065 655.787 182.406C649.448 188.747 642.032 193.765 633.539 197.459C625.046 201.153 615.999 203 606.398 203C596.797 203 587.75 201.153 579.257 197.459C570.764 193.765 563.379 188.747 557.102 182.406C550.824 176.065 545.839 168.646 542.146 160.15C538.454 151.654 536.607 142.604 536.607 133ZM573.164 133C573.164 137.679 574.026 142.112 575.749 146.298C577.472 150.485 579.842 154.178 582.857 157.38C585.873 160.581 589.412 163.136 593.474 165.045C597.536 166.953 601.844 167.908 606.398 167.908C610.952 167.908 615.26 166.953 619.322 165.045C623.384 163.136 626.954 160.581 630.031 157.38C633.108 154.178 635.508 150.485 637.231 146.298C638.955 142.112 639.816 137.679 639.816 133C639.816 128.444 638.955 124.042 637.231 119.794C635.508 115.546 633.108 111.852 630.031 108.712C626.954 105.573 623.384 103.048 619.322 101.14C615.26 99.2313 610.952 98.277 606.398 98.277C601.844 98.277 597.536 99.2313 593.474 101.14C589.412 103.048 585.873 105.573 582.857 108.712C579.842 111.852 577.472 115.546 575.749 119.794C574.026 124.042 573.164 128.444 573.164 133ZM828.788 164.583C825.218 170.37 821.279 175.634 816.971 180.375C812.663 185.115 807.832 189.148 802.478 192.472C797.123 195.797 791.184 198.383 784.661 200.23C778.137 202.077 770.936 203 763.059 203C753.212 203 743.98 201.153 735.364 197.459C726.748 193.765 719.209 188.778 712.747 182.499C706.284 176.219 701.207 168.831 697.514 160.335C693.822 151.839 691.976 142.789 691.976 133.185C691.976 123.581 693.822 114.531 697.514 106.034C701.207 97.5384 706.284 90.1506 712.747 83.8709C719.209 77.5912 726.748 72.6044 735.364 68.9105C743.98 65.2165 753.212 63.3696 763.059 63.3696C771.183 63.3696 778.506 64.2931 785.03 66.14C791.554 67.987 797.462 70.5727 802.755 73.8973C808.047 77.2218 812.817 81.2543 817.064 85.9949C821.31 90.7355 825.218 95.9377 828.788 101.602C829.403 102.587 829.526 103.633 829.157 104.742C828.788 105.85 828.049 106.65 826.941 107.143L800.724 117.486C799.493 117.978 798.262 117.978 797.031 117.486C795.8 116.993 794.877 116.254 794.262 115.269C790.692 109.605 786.384 105.265 781.337 102.248C776.291 99.2315 770.198 97.7231 763.059 97.7231C758.381 97.7231 753.981 98.7082 749.858 100.678C745.734 102.648 742.134 105.265 739.057 108.528C735.979 111.791 733.579 115.577 731.856 119.887C730.133 124.196 729.271 128.629 729.271 133.185C729.271 137.864 730.133 142.327 731.856 146.575C733.579 150.823 735.979 154.548 739.057 157.749C742.134 160.951 745.734 163.537 749.858 165.507C753.981 167.477 758.381 168.462 763.059 168.462C769.829 168.462 775.952 166.83 781.43 163.567C786.907 160.304 791.246 156.087 794.446 150.916C795.062 149.931 795.954 149.192 797.123 148.699C798.293 148.207 799.493 148.207 800.724 148.699L826.941 159.042C828.049 159.535 828.788 160.304 829.157 161.351C829.526 162.398 829.403 163.475 828.788 164.583ZM933.012 99.3849H907.163C905.932 99.3849 904.886 99.8159 904.025 100.678C903.163 101.54 902.732 102.586 902.732 103.818V196.166C902.732 197.397 902.332 198.444 901.532 199.306C900.732 200.168 899.655 200.599 898.301 200.599H870.606C869.375 200.599 868.329 200.168 867.468 199.306C866.606 198.444 866.175 197.397 866.175 196.166V103.818C866.175 102.586 865.775 101.54 864.975 100.678C864.175 99.8159 863.098 99.3849 861.744 99.3849H835.526C834.295 99.3849 833.249 98.954 832.387 98.092C831.526 97.2301 831.095 96.1835 831.095 94.9522V69.8335C831.095 68.6022 831.526 67.5556 832.387 66.6937C833.249 65.8317 834.295 65.4008 835.526 65.4008H933.012C934.366 65.4008 935.443 65.8317 936.243 66.6937C937.043 67.5556 937.443 68.6022 937.443 69.8335V94.9522C937.443 96.1835 937.043 97.2301 936.243 98.092C935.443 98.954 934.366 99.3849 933.012 99.3849ZM980.001 69.6491C980.493 68.5409 981.324 67.5867 982.493 66.7863C983.663 65.986 984.924 65.5858 986.278 65.5858H1012.13C1013.36 65.5858 1014.56 65.986 1015.73 66.7863C1016.9 67.5867 1017.73 68.5409 1018.22 69.6491L1072.13 195.243C1072.62 196.351 1072.53 197.521 1071.86 198.752C1071.18 199.983 1069.85 200.599 1067.89 200.599H1036.31C1034.96 200.599 1033.7 200.199 1032.53 199.398C1031.36 198.598 1030.47 197.644 1029.85 196.536L1024.87 185.454C1024.25 184.346 1023.36 183.391 1022.19 182.591C1021.02 181.791 1019.82 181.39 1018.59 181.39H979.631C978.277 181.39 977.016 181.791 975.846 182.591C974.677 183.391 973.846 184.346 973.354 185.454L968.184 196.536C967.692 197.644 966.861 198.598 965.692 199.398C964.522 200.199 963.322 200.599 962.091 200.599H930.335C929.719 200.599 929.073 200.476 928.396 200.229C927.719 199.983 927.165 199.614 926.734 199.121C926.304 198.629 926.027 198.013 925.904 197.274C925.781 196.536 925.965 195.674 926.457 194.689L980.001 69.6491ZM990.894 149.992H1007.33C1008.56 149.992 1009.45 149.592 1010 148.791C1010.56 147.991 1010.53 147.037 1009.91 145.928C1008.68 142.85 1007.2 139.249 1005.48 135.124C1003.76 130.999 1002.16 127.151 1000.68 123.58C1000.19 122.472 999.634 121.918 999.018 121.918C998.403 121.918 997.849 122.472 997.356 123.58L988.125 145.928C987.633 147.037 987.633 147.991 988.125 148.791C988.617 149.592 989.54 149.992 990.894 149.992ZM1214.94 69.8335V196.166C1214.94 197.397 1214.51 198.444 1213.65 199.306C1212.79 200.168 1211.74 200.599 1210.51 200.599H1183.19C1181.96 200.599 1180.66 200.229 1179.31 199.49C1177.96 198.752 1176.91 197.89 1176.17 196.905L1127.98 129.121C1127.24 128.136 1126.48 127.736 1125.68 127.92C1124.88 128.105 1124.48 128.813 1124.48 130.045V196.166C1124.48 197.397 1124.04 198.444 1123.18 199.306C1122.32 200.168 1121.27 200.599 1120.04 200.599H1092.53C1091.3 200.599 1090.26 200.168 1089.4 199.306C1088.53 198.444 1088.1 197.397 1088.1 196.166V69.8335C1088.1 68.6022 1088.53 67.5556 1089.4 66.6937C1090.26 65.8317 1091.3 65.4008 1092.53 65.4008H1120.23C1121.46 65.4008 1122.75 65.7394 1124.11 66.4166C1125.46 67.0938 1126.51 67.925 1127.24 68.91L1175.25 136.694C1175.99 137.679 1176.76 138.11 1177.56 137.986C1178.36 137.863 1178.76 137.186 1178.76 135.955V69.8335C1178.76 68.6022 1179.19 67.5556 1180.05 66.6937C1180.91 65.8317 1181.96 65.4008 1183.19 65.4008H1210.51C1211.74 65.4008 1212.79 65.8317 1213.65 66.6937C1214.51 67.5556 1214.94 68.6022 1214.94 69.8335ZM1281.87 103.818V111.575C1281.87 112.806 1282.3 113.853 1283.17 114.715C1284.03 115.577 1285.07 116.008 1286.3 116.008H1336.34C1337.57 116.008 1338.62 116.439 1339.48 117.3C1340.34 118.162 1340.77 119.209 1340.77 120.44V145.928C1340.77 147.16 1340.34 148.206 1339.48 149.068C1338.62 149.93 1337.57 150.361 1336.34 150.361H1286.3C1285.07 150.361 1284.03 150.792 1283.17 151.654C1282.3 152.516 1281.87 153.562 1281.87 154.794V161.812C1281.87 163.044 1282.3 164.09 1283.17 164.952C1284.03 165.814 1285.07 166.245 1286.3 166.245H1343.73C1344.96 166.245 1346 166.676 1346.86 167.538C1347.73 168.4 1348.16 169.446 1348.16 170.678V196.166C1348.16 197.397 1347.73 198.444 1346.86 199.306C1346 200.168 1344.96 200.599 1343.73 200.599H1249.75C1248.52 200.599 1247.47 200.168 1246.61 199.306C1245.75 198.444 1245.32 197.397 1245.32 196.166V69.8335C1245.32 68.6022 1245.75 67.5556 1246.61 66.6937C1247.47 65.8317 1248.52 65.4008 1249.75 65.4008H1343.73C1344.96 65.4008 1346 65.8317 1346.86 66.6937C1347.73 67.5556 1348.16 68.6022 1348.16 69.8335V94.9522C1348.16 96.1835 1347.73 97.2301 1346.86 98.092C1346 98.954 1344.96 99.3849 1343.73 99.3849H1286.3C1285.07 99.3849 1284.03 99.8159 1283.17 100.678C1282.3 101.54 1281.87 102.586 1281.87 103.818ZM1477.03 104.002V111.76C1477.03 112.991 1477.46 114.037 1478.32 114.899C1479.18 115.761 1480.23 116.192 1481.46 116.192H1531.31C1532.54 116.192 1533.59 116.623 1534.45 117.485C1535.31 118.347 1535.74 119.394 1535.74 120.625V146.482C1535.74 147.714 1535.31 148.76 1534.45 149.622C1533.59 150.484 1532.54 150.915 1531.31 150.915H1481.46C1480.23 150.915 1479.18 151.346 1478.32 152.208C1477.46 153.07 1477.03 154.117 1477.03 155.348V196.166C1477.03 197.397 1476.6 198.444 1475.74 199.306C1474.88 200.168 1473.83 200.599 1472.6 200.599H1444.72C1443.49 200.599 1442.44 200.168 1441.58 199.306C1440.72 198.444 1440.29 197.397 1440.29 196.166V69.8335C1440.29 68.6022 1440.72 67.5556 1441.58 66.6937C1442.44 65.8317 1443.49 65.4008 1444.72 65.4008H1538.7C1539.93 65.4008 1540.97 65.8317 1541.83 66.6937C1542.7 67.5556 1543.13 68.6022 1543.13 69.8335V95.1369C1543.13 96.3682 1542.7 97.4148 1541.83 98.2767C1540.97 99.1386 1539.93 99.5696 1538.7 99.5696H1481.46C1480.23 99.5696 1479.18 100.001 1478.32 100.862C1477.46 101.724 1477.03 102.771 1477.03 104.002ZM1597.5 200.599H1569.62C1568.27 200.599 1567.19 200.168 1566.39 199.306C1565.59 198.444 1565.19 197.397 1565.19 196.166V70.0185C1565.19 68.7872 1565.59 67.7406 1566.39 66.8787C1567.19 66.0168 1568.27 65.5858 1569.62 65.5858H1597.5C1598.73 65.5858 1599.78 66.0168 1600.64 66.8787C1601.5 67.7406 1601.93 68.7872 1601.93 70.0185V196.166C1601.93 197.397 1601.5 198.444 1600.64 199.306C1599.78 200.168 1598.73 200.599 1597.5 200.599ZM1730.16 171.047V196.166C1730.16 197.397 1729.73 198.444 1728.87 199.306C1728.01 200.168 1726.96 200.599 1725.73 200.599H1633.6C1632.24 200.599 1631.17 200.168 1630.37 199.306C1629.57 198.444 1629.17 197.397 1629.17 196.166V69.8335C1629.17 68.6022 1629.57 67.5556 1630.37 66.6937C1631.17 65.8317 1632.24 65.4008 1633.6 65.4008H1661.29C1662.52 65.4008 1663.57 65.8317 1664.43 66.6937C1665.29 67.5556 1665.72 68.6022 1665.72 69.8335V162.182C1665.72 163.413 1666.12 164.46 1666.92 165.322C1667.72 166.183 1668.8 166.614 1670.15 166.614H1725.73C1726.96 166.614 1728.01 167.045 1728.87 167.907C1729.73 168.769 1730.16 169.816 1730.16 171.047ZM1782.13 103.818V111.575C1782.13 112.806 1782.56 113.853 1783.43 114.715C1784.29 115.577 1785.33 116.008 1786.57 116.008H1836.6C1837.83 116.008 1838.88 116.439 1839.74 117.3C1840.6 118.162 1841.03 119.209 1841.03 120.44V145.928C1841.03 147.16 1840.6 148.206 1839.74 149.068C1838.88 149.93 1837.83 150.361 1836.6 150.361H1786.57C1785.33 150.361 1784.29 150.792 1783.43 151.654C1782.56 152.516 1782.13 153.562 1782.13 154.794V161.812C1782.13 163.044 1782.56 164.09 1783.43 164.952C1784.29 165.814 1785.33 166.245 1786.57 166.245H1843.99C1845.22 166.245 1846.26 166.676 1847.12 167.538C1847.99 168.4 1848.42 169.446 1848.42 170.678V196.166C1848.42 197.397 1847.99 198.444 1847.12 199.306C1846.26 200.168 1845.22 200.599 1843.99 200.599H1750.01C1748.78 200.599 1747.73 200.168 1746.87 199.306C1746.01 198.444 1745.58 197.397 1745.58 196.166V69.8335C1745.58 68.6022 1746.01 67.5556 1746.87 66.6937C1747.73 65.8317 1748.78 65.4008 1750.01 65.4008H1843.99C1845.22 65.4008 1846.26 65.8317 1847.12 66.6937C1847.99 67.5556 1848.42 68.6022 1848.42 69.8335V94.9522C1848.42 96.1835 1847.99 97.2301 1847.12 98.092C1846.26 98.954 1845.22 99.3849 1843.99 99.3849H1786.57C1785.33 99.3849 1784.29 99.8159 1783.43 100.678C1782.56 101.54 1782.13 102.586 1782.13 103.818ZM1890.05 154.24C1896.7 158.55 1903.28 161.936 1909.81 164.398C1916.33 166.861 1922.42 168.092 1928.08 168.092C1933.5 168.092 1937.62 167.323 1940.46 165.784C1943.29 164.244 1944.7 161.936 1944.7 158.857C1944.7 157.257 1944.09 155.995 1942.86 155.071C1941.62 154.148 1939.99 153.378 1937.96 152.763C1935.93 152.147 1933.56 151.654 1930.85 151.285C1928.15 150.916 1925.38 150.423 1922.55 149.807C1919.84 149.315 1916.67 148.73 1913.04 148.053C1909.41 147.376 1905.68 146.39 1901.87 145.098C1898.05 143.805 1894.27 142.173 1890.51 140.203C1886.76 138.233 1883.4 135.709 1880.45 132.631C1877.5 129.552 1875.13 125.889 1873.34 121.641C1871.56 117.393 1870.66 112.376 1870.66 106.588C1870.66 98.0923 1872.33 91.074 1875.65 85.533C1878.97 79.9921 1883.19 75.5902 1888.3 72.3272C1893.41 69.0643 1899.1 66.7864 1905.38 65.4935C1911.65 64.2006 1917.75 63.5542 1923.65 63.5542C1933.99 63.5542 1943.26 65.0625 1951.44 68.0792C1959.63 71.0959 1967.47 75.4978 1974.98 81.285C1975.97 82.1469 1976.52 83.1935 1976.64 84.4249C1976.77 85.6562 1976.46 86.7643 1975.72 87.7494L1961.32 108.251C1960.58 109.236 1959.6 109.851 1958.36 110.098C1957.13 110.344 1956.03 110.098 1955.04 109.359C1948.76 105.419 1942.92 102.617 1937.5 100.955C1932.09 99.2929 1927.1 98.4618 1922.55 98.4618C1921.19 98.4618 1919.62 98.4926 1917.84 98.5541C1916.05 98.6157 1914.36 98.862 1912.76 99.2929C1911.16 99.7239 1909.84 100.432 1908.79 101.417C1907.74 102.402 1907.22 103.756 1907.22 105.48C1907.22 107.204 1908.51 108.743 1911.1 110.098C1913.68 111.452 1916.64 112.622 1919.96 113.607C1923.28 114.592 1926.48 115.361 1929.56 115.916C1932.64 116.47 1934.61 116.808 1935.47 116.931C1939.9 117.793 1944.76 119.055 1950.06 120.718C1955.35 122.38 1960.3 124.843 1964.92 128.106C1969.53 131.369 1973.41 135.617 1976.55 140.85C1979.69 146.083 1981.26 152.639 1981.26 160.52C1981.26 167.908 1979.97 174.28 1977.38 179.636C1974.8 184.992 1971.2 189.394 1966.58 192.842C1961.96 196.289 1956.43 198.844 1949.96 200.507C1943.5 202.169 1936.33 203 1928.45 203C1922.05 203 1916.08 202.477 1910.54 201.43C1905.01 200.383 1899.84 198.937 1895.04 197.09C1890.24 195.243 1885.77 193.057 1881.65 190.533C1877.53 188.009 1873.74 185.331 1870.3 182.499C1869.31 181.76 1868.76 180.744 1868.63 179.451C1868.51 178.158 1868.82 177.019 1869.56 176.034L1883.77 155.533C1884.51 154.548 1885.5 153.932 1886.73 153.686C1887.96 153.44 1889.07 153.624 1890.05 154.24Z" fill="black"/>
<path fill-rule="evenodd" clip-rule="evenodd" d="M2014.99 69.3137V88.3333H2020.12V69.3137H2027.11V65H2008V69.3137H2014.99ZM2030.3 65V88.3333H2035.1V71.9608H2035.16L2040.88 88.3333H2044.83L2050.55 71.7974H2050.62V88.3333H2055.42V65H2048.2L2043.04 81.0458H2042.97L2037.52 65H2030.3Z" fill="black"/>
</svg>
