<svg width="512" height="512" viewBox="0 0 512 512" fill="none" xmlns="http://www.w3.org/2000/svg">
<circle cx="256" cy="256" r="256" fill="#F6C003"/>
<path d="M167.962 176C228.14 176 276.924 224.801 276.924 285C276.924 345.199 228.14 394 167.962 394C107.784 394 59 345.199 59 285C59 224.801 107.784 176 167.962 176ZM167.962 240.117C143.183 240.117 123.096 260.212 123.096 285C123.096 309.788 143.183 329.882 167.962 329.882C192.741 329.882 212.829 309.788 212.829 285C212.829 260.212 192.741 240.117 167.962 240.117ZM378.171 252.942C361.953 288.801 326.899 314.314 285.635 316.852C288.314 306.793 289.742 296.224 289.742 285.321C289.742 274.111 288.232 263.254 285.405 252.942H378.171ZM465.34 176C448.239 213.81 410.198 240.117 366.015 240.117H281.107C269.983 212.198 248.859 189.35 222.162 176H465.34Z" fill="black"/>
</svg>
