<svg width="407" height="218" viewBox="0 0 407 218" fill="none" xmlns="http://www.w3.org/2000/svg">
<path d="M108.962 0C169.14 9.07443e-05 217.924 48.801 217.924 109C217.924 169.199 169.14 218 108.962 218C48.784 218 1.64894e-05 169.199 0 109C0 48.801 48.784 0 108.962 0ZM108.962 64.1172C84.183 64.1174 64.0957 84.2123 64.0957 109C64.0957 133.788 84.183 153.882 108.962 153.882C133.741 153.882 153.829 133.788 153.829 109C153.829 84.2122 133.741 64.1172 108.962 64.1172ZM319.171 76.9424C302.953 112.801 267.899 138.314 226.635 140.852C229.314 130.793 230.742 120.224 230.742 109.321C230.742 98.1115 229.232 87.2545 226.405 76.9424H319.171ZM406.34 0C389.239 37.8105 351.198 64.1172 307.015 64.1172H222.107C210.983 36.198 189.859 13.35 163.162 0H406.34Z" fill="black"/>
</svg>
